G04 EAGLE Gerber RS-274X export*
G75*
%MOMM*%
%FSLAX34Y34*%
%LPD*%
%INBottom Copper*%
%IPPOS*%
%AMOC8*
5,1,8,0,0,1.08239X$1,22.5*%
G01*
%ADD10R,2.625000X2.625000*%
%ADD11C,2.625000*%
%ADD12R,1.422400X1.422400*%
%ADD13P,1.539592X8X292.500000*%
%ADD14C,0.400000*%
%ADD15C,1.000000*%


D10*
X130000Y650000D03*
D11*
X130000Y610000D03*
X130000Y570000D03*
X130000Y530000D03*
X130000Y490000D03*
X130000Y450000D03*
X130000Y410000D03*
X130000Y370000D03*
X130000Y330000D03*
X130000Y290000D03*
X130000Y250000D03*
X130000Y210000D03*
X90000Y630000D03*
X90000Y590000D03*
X90000Y550000D03*
X90000Y510000D03*
X90000Y470000D03*
X90000Y430000D03*
X90000Y390000D03*
X90000Y350000D03*
X90000Y310000D03*
X90000Y270000D03*
X90000Y230000D03*
X50000Y650000D03*
X50000Y610000D03*
X50000Y570000D03*
X50000Y530000D03*
X50000Y490000D03*
X50000Y450000D03*
X50000Y410000D03*
X50000Y370000D03*
X50000Y330000D03*
X50000Y290000D03*
X50000Y250000D03*
X50000Y210000D03*
D12*
X232700Y671300D03*
D13*
X207300Y671300D03*
X232700Y645900D03*
X207300Y645900D03*
X232700Y620500D03*
X207300Y620500D03*
X232700Y595100D03*
X207300Y595100D03*
X232700Y569700D03*
X207300Y569700D03*
X232700Y544300D03*
X207300Y544300D03*
X232700Y518900D03*
X207300Y518900D03*
X232700Y493500D03*
X207300Y493500D03*
X232700Y468100D03*
X207300Y468100D03*
X232700Y442700D03*
X207300Y442700D03*
X232700Y417300D03*
X207300Y417300D03*
X232700Y391900D03*
X207300Y391900D03*
X232700Y366500D03*
X207300Y366500D03*
X207300Y341100D03*
X232700Y341100D03*
X207300Y315700D03*
X232700Y315700D03*
X207300Y290300D03*
X232700Y290300D03*
X232700Y264900D03*
X207300Y264900D03*
X232700Y239500D03*
X207300Y239500D03*
X207300Y214100D03*
X232700Y214100D03*
X232700Y188700D03*
X207300Y188700D03*
D14*
X137508Y508125D02*
X122492Y508125D01*
X104367Y490000D02*
X50000Y490000D01*
X137508Y508125D02*
X145633Y500000D01*
X122492Y508125D02*
X104367Y490000D01*
X200800Y500000D02*
X207300Y493500D01*
X200800Y500000D02*
X145633Y500000D01*
X137508Y548125D02*
X122492Y548125D01*
X104367Y530000D02*
X50000Y530000D01*
X104367Y530000D02*
X122492Y548125D01*
X137508Y548125D02*
X153445Y532188D01*
X220588Y532188D01*
X232700Y544300D01*
X100000Y570000D02*
X50000Y570000D01*
X100000Y570000D02*
X120000Y590000D01*
X180000Y590000D01*
X200300Y569700D02*
X207300Y569700D01*
X200300Y569700D02*
X180000Y590000D01*
X100000Y610000D02*
X50000Y610000D01*
X100000Y610000D02*
X120000Y630000D01*
X199671Y630000D01*
X202283Y632612D01*
X220588Y632612D01*
X232700Y620500D01*
D15*
X71125Y671125D02*
X50000Y650000D01*
X71125Y671125D02*
X170000Y671125D01*
X190000Y651125D01*
X190000Y650000D01*
X194100Y645900D01*
X207300Y645900D01*
X232700Y645900D01*
D14*
X197471Y410000D02*
X130000Y410000D01*
X197471Y410000D02*
X202283Y405188D01*
X219412Y405188D02*
X232700Y391900D01*
X219412Y405188D02*
X202283Y405188D01*
X137508Y428125D02*
X122492Y428125D01*
X137508Y428125D02*
X142816Y422816D01*
X104367Y410000D02*
X50000Y410000D01*
X104367Y410000D02*
X122492Y428125D01*
X201784Y422816D02*
X207300Y417300D01*
X201784Y422816D02*
X142816Y422816D01*
X137508Y351875D02*
X122492Y351875D01*
X104367Y370000D02*
X50000Y370000D01*
X137508Y351875D02*
X145633Y360000D01*
X122492Y351875D02*
X104367Y370000D01*
X200800Y360000D02*
X207300Y366500D01*
X200800Y360000D02*
X145633Y360000D01*
X190471Y290000D02*
X202283Y278188D01*
X220588Y278188D01*
X232700Y290300D01*
X190471Y290000D02*
X130000Y290000D01*
X90000Y310000D02*
X201600Y310000D01*
X207300Y315700D01*
X202200Y270000D02*
X207300Y264900D01*
X202200Y270000D02*
X90000Y270000D01*
X104367Y250000D02*
X50000Y250000D01*
X104367Y250000D02*
X122492Y231875D01*
X199675Y231875D02*
X207300Y239500D01*
X199675Y231875D02*
X122492Y231875D01*
D15*
X90000Y220125D02*
X121250Y188875D01*
X90000Y220125D02*
X90000Y230000D01*
X182075Y188875D02*
X207300Y214100D01*
X182075Y188875D02*
X121250Y188875D01*
X207300Y214100D02*
X232700Y214100D01*
D14*
X188271Y470000D02*
X90000Y470000D01*
X219412Y455988D02*
X232700Y442700D01*
X202283Y455988D02*
X188271Y470000D01*
X202283Y455988D02*
X219412Y455988D01*
M02*
