G04 EAGLE Gerber RS-274X export*
G75*
%MOMM*%
%FSLAX34Y34*%
%LPD*%
%INTop Copper*%
%IPPOS*%
%AMOC8*
5,1,8,0,0,1.08239X$1,22.5*%
G01*
%ADD10R,2.625000X2.625000*%
%ADD11C,2.625000*%
%ADD12R,1.422400X1.422400*%
%ADD13P,1.539592X8X292.500000*%
%ADD14C,0.400000*%
%ADD15C,1.000000*%


D10*
X130000Y650000D03*
D11*
X130000Y610000D03*
X130000Y570000D03*
X130000Y530000D03*
X130000Y490000D03*
X130000Y450000D03*
X130000Y410000D03*
X130000Y370000D03*
X130000Y330000D03*
X130000Y290000D03*
X130000Y250000D03*
X130000Y210000D03*
X90000Y630000D03*
X90000Y590000D03*
X90000Y550000D03*
X90000Y510000D03*
X90000Y470000D03*
X90000Y430000D03*
X90000Y390000D03*
X90000Y350000D03*
X90000Y310000D03*
X90000Y270000D03*
X90000Y230000D03*
X50000Y650000D03*
X50000Y610000D03*
X50000Y570000D03*
X50000Y530000D03*
X50000Y490000D03*
X50000Y450000D03*
X50000Y410000D03*
X50000Y370000D03*
X50000Y330000D03*
X50000Y290000D03*
X50000Y250000D03*
X50000Y210000D03*
D12*
X232700Y671300D03*
D13*
X207300Y671300D03*
X232700Y645900D03*
X207300Y645900D03*
X232700Y620500D03*
X207300Y620500D03*
X232700Y595100D03*
X207300Y595100D03*
X232700Y569700D03*
X207300Y569700D03*
X232700Y544300D03*
X207300Y544300D03*
X232700Y518900D03*
X207300Y518900D03*
X232700Y493500D03*
X207300Y493500D03*
X232700Y468100D03*
X207300Y468100D03*
X232700Y442700D03*
X207300Y442700D03*
X232700Y417300D03*
X207300Y417300D03*
X232700Y391900D03*
X207300Y391900D03*
X232700Y366500D03*
X207300Y366500D03*
X207300Y341100D03*
X232700Y341100D03*
X207300Y315700D03*
X232700Y315700D03*
X207300Y290300D03*
X232700Y290300D03*
X232700Y264900D03*
X207300Y264900D03*
X232700Y239500D03*
X207300Y239500D03*
X207300Y214100D03*
X232700Y214100D03*
X232700Y188700D03*
X207300Y188700D03*
D14*
X198372Y450000D02*
X130000Y450000D01*
X198372Y450000D02*
X199384Y448988D01*
X201012Y448988D01*
X207300Y442700D01*
X100000Y450000D02*
X50000Y450000D01*
X100000Y450000D02*
X120000Y470000D01*
X230800Y470000D02*
X232700Y468100D01*
X212317Y455988D02*
X202283Y455988D01*
X226329Y470000D02*
X230800Y470000D01*
X226329Y470000D02*
X212317Y455988D01*
X188271Y470000D02*
X120000Y470000D01*
X188271Y470000D02*
X202283Y455988D01*
X180000Y490000D02*
X130000Y490000D01*
X201900Y468100D02*
X207300Y468100D01*
X201900Y468100D02*
X180000Y490000D01*
X224429Y493500D02*
X232700Y493500D01*
X212317Y481388D02*
X202283Y481388D01*
X173671Y510000D02*
X90000Y510000D01*
X173671Y510000D02*
X202283Y481388D01*
X212317Y481388D02*
X224429Y493500D01*
X179071Y530000D02*
X130000Y530000D01*
X179071Y530000D02*
X202283Y506788D01*
X220588Y506788D02*
X232700Y518900D01*
X220588Y506788D02*
X202283Y506788D01*
X202188Y524012D02*
X202188Y527712D01*
X202188Y524012D02*
X207300Y518900D01*
X202188Y527712D02*
X179900Y550000D01*
X90000Y550000D01*
X90000Y590000D02*
X180000Y590000D01*
X189871Y580129D01*
X189871Y570000D01*
X202283Y557588D01*
X220588Y557588D01*
X232700Y569700D01*
X180000Y610000D02*
X130000Y610000D01*
X180000Y610000D02*
X195188Y594812D01*
X195188Y590083D01*
X203459Y581812D01*
X219412Y581812D02*
X232700Y595100D01*
X219412Y581812D02*
X203459Y581812D01*
X189671Y630000D02*
X90000Y630000D01*
X189671Y630000D02*
X195188Y624483D01*
X195188Y615483D01*
X207300Y603371D02*
X207300Y595100D01*
X207300Y603371D02*
X195188Y615483D01*
D15*
X160000Y650000D02*
X130000Y650000D01*
X181300Y671300D02*
X207300Y671300D01*
X181300Y671300D02*
X160000Y650000D01*
X207300Y671300D02*
X232700Y671300D01*
D14*
X220000Y430000D02*
X232700Y417300D01*
X220000Y430000D02*
X90000Y430000D01*
X232700Y367300D02*
X232700Y366500D01*
X232700Y367300D02*
X220000Y380000D01*
X140000Y380000D02*
X130000Y370000D01*
X212529Y380000D02*
X220000Y380000D01*
X212529Y380000D02*
X212317Y379788D01*
X202283Y379788D01*
X202071Y380000D01*
X140000Y380000D01*
X205400Y390000D02*
X207300Y391900D01*
X205400Y390000D02*
X90000Y390000D01*
X201271Y330000D02*
X202283Y328988D01*
X220588Y328988D01*
X232700Y341100D01*
X201271Y330000D02*
X130000Y330000D01*
X144533Y341100D02*
X207300Y341100D01*
X144533Y341100D02*
X137508Y348125D01*
X91875Y348125D02*
X90000Y350000D01*
X91875Y348125D02*
X137508Y348125D01*
X104367Y330000D02*
X50000Y330000D01*
X104367Y330000D02*
X122492Y311875D01*
X193996Y311875D02*
X202283Y303588D01*
X220588Y303588D01*
X232700Y315700D01*
X193996Y311875D02*
X122492Y311875D01*
X122492Y271875D02*
X137508Y271875D01*
X104367Y290000D02*
X50000Y290000D01*
X104367Y290000D02*
X122492Y271875D01*
X155933Y290300D02*
X207300Y290300D01*
X155933Y290300D02*
X137508Y271875D01*
X144900Y264900D02*
X130000Y250000D01*
X144900Y264900D02*
X175100Y264900D01*
X188388Y251612D01*
X219412Y251612D02*
X232700Y264900D01*
X219412Y251612D02*
X188388Y251612D01*
X140000Y220000D02*
X130000Y210000D01*
X196071Y220000D02*
X202283Y226212D01*
X216212Y226212D02*
X230000Y240000D01*
X216212Y226212D02*
X202283Y226212D01*
X230000Y240000D02*
X232200Y240000D01*
X232700Y239500D01*
X196071Y220000D02*
X140000Y220000D01*
D15*
X71300Y188700D02*
X50000Y210000D01*
X71300Y188700D02*
X207300Y188700D01*
X232700Y188700D01*
D14*
X180000Y570000D02*
X130000Y570000D01*
X180000Y570000D02*
X182871Y567129D01*
X182871Y567101D01*
X199384Y550588D02*
X199412Y550588D01*
X199384Y550588D02*
X182871Y567101D01*
X205700Y544300D02*
X207300Y544300D01*
X205700Y544300D02*
X199412Y550588D01*
M02*
