G04 EAGLE Gerber RS-274X export*
G75*
%MOMM*%
%FSLAX34Y34*%
%LPD*%
%IN*%
%IPPOS*%
%AMOC8*
5,1,8,0,0,1.08239X$1,22.5*%
G01*
%ADD10C,0.254000*%


D10*
X-40000Y60000D02*
X297500Y60000D01*
X297500Y800000D01*
X-40000Y800000D01*
X-40000Y60000D01*
X197563Y737000D02*
X196694Y737076D01*
X195834Y737228D01*
X194990Y737454D01*
X194170Y737752D01*
X193378Y738121D01*
X192622Y738558D01*
X191907Y739059D01*
X191238Y739620D01*
X190620Y740238D01*
X190059Y740907D01*
X189558Y741622D01*
X189121Y742378D01*
X188752Y743170D01*
X188454Y743990D01*
X188228Y744834D01*
X188076Y745694D01*
X188000Y746563D01*
X188000Y747437D01*
X188076Y748307D01*
X188228Y749166D01*
X188454Y750010D01*
X188752Y750830D01*
X189121Y751622D01*
X189558Y752378D01*
X190059Y753093D01*
X190620Y753762D01*
X191238Y754380D01*
X191907Y754941D01*
X192622Y755442D01*
X193378Y755879D01*
X194170Y756248D01*
X194990Y756546D01*
X195834Y756772D01*
X196694Y756924D01*
X197563Y757000D01*
X198437Y757000D01*
X199307Y756924D01*
X200166Y756772D01*
X201010Y756546D01*
X201830Y756248D01*
X202622Y755879D01*
X203378Y755442D01*
X204093Y754941D01*
X204762Y754380D01*
X205380Y753762D01*
X205941Y753093D01*
X206442Y752378D01*
X206879Y751622D01*
X207248Y750830D01*
X207546Y750010D01*
X207772Y749166D01*
X207924Y748307D01*
X208000Y747437D01*
X208000Y746563D01*
X207924Y745694D01*
X207772Y744834D01*
X207546Y743990D01*
X207248Y743170D01*
X206879Y742378D01*
X206442Y741622D01*
X205941Y740907D01*
X205380Y740238D01*
X204762Y739620D01*
X204093Y739059D01*
X203378Y738558D01*
X202622Y738121D01*
X201830Y737752D01*
X201010Y737454D01*
X200166Y737228D01*
X199307Y737076D01*
X198437Y737000D01*
X197563Y737000D01*
X16563Y752000D02*
X15694Y752076D01*
X14834Y752228D01*
X13990Y752454D01*
X13170Y752752D01*
X12378Y753121D01*
X11622Y753558D01*
X10907Y754059D01*
X10238Y754620D01*
X9620Y755238D01*
X9059Y755907D01*
X8558Y756622D01*
X8121Y757378D01*
X7752Y758170D01*
X7454Y758990D01*
X7228Y759834D01*
X7076Y760694D01*
X7000Y761563D01*
X7000Y762437D01*
X7076Y763307D01*
X7228Y764166D01*
X7454Y765010D01*
X7752Y765830D01*
X8121Y766622D01*
X8558Y767378D01*
X9059Y768093D01*
X9620Y768762D01*
X10238Y769380D01*
X10907Y769941D01*
X11622Y770442D01*
X12378Y770879D01*
X13170Y771248D01*
X13990Y771546D01*
X14834Y771772D01*
X15694Y771924D01*
X16563Y772000D01*
X17437Y772000D01*
X18307Y771924D01*
X19166Y771772D01*
X20010Y771546D01*
X20830Y771248D01*
X21622Y770879D01*
X22378Y770442D01*
X23093Y769941D01*
X23762Y769380D01*
X24380Y768762D01*
X24941Y768093D01*
X25442Y767378D01*
X25879Y766622D01*
X26248Y765830D01*
X26546Y765010D01*
X26772Y764166D01*
X26924Y763307D01*
X27000Y762437D01*
X27000Y761563D01*
X26924Y760694D01*
X26772Y759834D01*
X26546Y758990D01*
X26248Y758170D01*
X25879Y757378D01*
X25442Y756622D01*
X24941Y755907D01*
X24380Y755238D01*
X23762Y754620D01*
X23093Y754059D01*
X22378Y753558D01*
X21622Y753121D01*
X20830Y752752D01*
X20010Y752454D01*
X19166Y752228D01*
X18307Y752076D01*
X17437Y752000D01*
X16563Y752000D01*
X197563Y103000D02*
X196694Y103076D01*
X195834Y103228D01*
X194990Y103454D01*
X194170Y103752D01*
X193378Y104121D01*
X192622Y104558D01*
X191907Y105059D01*
X191238Y105620D01*
X190620Y106238D01*
X190059Y106907D01*
X189558Y107622D01*
X189121Y108378D01*
X188752Y109170D01*
X188454Y109990D01*
X188228Y110834D01*
X188076Y111694D01*
X188000Y112563D01*
X188000Y113437D01*
X188076Y114307D01*
X188228Y115166D01*
X188454Y116010D01*
X188752Y116830D01*
X189121Y117622D01*
X189558Y118378D01*
X190059Y119093D01*
X190620Y119762D01*
X191238Y120380D01*
X191907Y120941D01*
X192622Y121442D01*
X193378Y121879D01*
X194170Y122248D01*
X194990Y122546D01*
X195834Y122772D01*
X196694Y122924D01*
X197563Y123000D01*
X198437Y123000D01*
X199307Y122924D01*
X200166Y122772D01*
X201010Y122546D01*
X201830Y122248D01*
X202622Y121879D01*
X203378Y121442D01*
X204093Y120941D01*
X204762Y120380D01*
X205380Y119762D01*
X205941Y119093D01*
X206442Y118378D01*
X206879Y117622D01*
X207248Y116830D01*
X207546Y116010D01*
X207772Y115166D01*
X207924Y114307D01*
X208000Y113437D01*
X208000Y112563D01*
X207924Y111694D01*
X207772Y110834D01*
X207546Y109990D01*
X207248Y109170D01*
X206879Y108378D01*
X206442Y107622D01*
X205941Y106907D01*
X205380Y106238D01*
X204762Y105620D01*
X204093Y105059D01*
X203378Y104558D01*
X202622Y104121D01*
X201830Y103752D01*
X201010Y103454D01*
X200166Y103228D01*
X199307Y103076D01*
X198437Y103000D01*
X197563Y103000D01*
X16563Y88000D02*
X15694Y88076D01*
X14834Y88228D01*
X13990Y88454D01*
X13170Y88752D01*
X12378Y89121D01*
X11622Y89558D01*
X10907Y90059D01*
X10238Y90620D01*
X9620Y91238D01*
X9059Y91907D01*
X8558Y92622D01*
X8121Y93378D01*
X7752Y94170D01*
X7454Y94990D01*
X7228Y95834D01*
X7076Y96694D01*
X7000Y97563D01*
X7000Y98437D01*
X7076Y99307D01*
X7228Y100166D01*
X7454Y101010D01*
X7752Y101830D01*
X8121Y102622D01*
X8558Y103378D01*
X9059Y104093D01*
X9620Y104762D01*
X10238Y105380D01*
X10907Y105941D01*
X11622Y106442D01*
X12378Y106879D01*
X13170Y107248D01*
X13990Y107546D01*
X14834Y107772D01*
X15694Y107924D01*
X16563Y108000D01*
X17437Y108000D01*
X18307Y107924D01*
X19166Y107772D01*
X20010Y107546D01*
X20830Y107248D01*
X21622Y106879D01*
X22378Y106442D01*
X23093Y105941D01*
X23762Y105380D01*
X24380Y104762D01*
X24941Y104093D01*
X25442Y103378D01*
X25879Y102622D01*
X26248Y101830D01*
X26546Y101010D01*
X26772Y100166D01*
X26924Y99307D01*
X27000Y98437D01*
X27000Y97563D01*
X26924Y96694D01*
X26772Y95834D01*
X26546Y94990D01*
X26248Y94170D01*
X25879Y93378D01*
X25442Y92622D01*
X24941Y91907D01*
X24380Y91238D01*
X23762Y90620D01*
X23093Y90059D01*
X22378Y89558D01*
X21622Y89121D01*
X20830Y88752D01*
X20010Y88454D01*
X19166Y88228D01*
X18307Y88076D01*
X17437Y88000D01*
X16563Y88000D01*
M02*
