G04 EAGLE Gerber RS-274X export*
G75*
%MOMM*%
%FSLAX34Y34*%
%LPD*%
%INSilkscreen Top*%
%IPPOS*%
%AMOC8*
5,1,8,0,0,1.08239X$1,22.5*%
G01*
%ADD10C,0.127000*%
%ADD11C,0.152400*%


D10*
X158000Y727000D02*
X22000Y727000D01*
X20792Y726985D01*
X19584Y726942D01*
X18378Y726869D01*
X17174Y726767D01*
X15973Y726635D01*
X14776Y726475D01*
X13582Y726286D01*
X12394Y726069D01*
X11211Y725822D01*
X10034Y725547D01*
X8865Y725244D01*
X7703Y724912D01*
X6549Y724553D01*
X5405Y724166D01*
X4270Y723751D01*
X3145Y723309D01*
X2032Y722840D01*
X930Y722344D01*
X-160Y721821D01*
X-1236Y721273D01*
X-2299Y720698D01*
X-3348Y720098D01*
X-4382Y719473D01*
X-5401Y718824D01*
X-6403Y718149D01*
X-7389Y717451D01*
X-8358Y716729D01*
X-9309Y715984D01*
X-10242Y715216D01*
X-11156Y714426D01*
X-12051Y713613D01*
X-12926Y712780D01*
X-13780Y711926D01*
X-14613Y711051D01*
X-15426Y710156D01*
X-16216Y709242D01*
X-16984Y708309D01*
X-17729Y707358D01*
X-18451Y706389D01*
X-19149Y705403D01*
X-19824Y704401D01*
X-20473Y703382D01*
X-21098Y702348D01*
X-21698Y701299D01*
X-22273Y700236D01*
X-22821Y699160D01*
X-23344Y698070D01*
X-23840Y696968D01*
X-24309Y695855D01*
X-24751Y694730D01*
X-25166Y693595D01*
X-25553Y692451D01*
X-25912Y691297D01*
X-26244Y690135D01*
X-26547Y688966D01*
X-26822Y687789D01*
X-27069Y686606D01*
X-27286Y685418D01*
X-27475Y684224D01*
X-27635Y683027D01*
X-27767Y681826D01*
X-27869Y680622D01*
X-27942Y679416D01*
X-27985Y678208D01*
X-28000Y677000D01*
X-28000Y183000D01*
X-27985Y181792D01*
X-27942Y180584D01*
X-27869Y179378D01*
X-27767Y178174D01*
X-27635Y176973D01*
X-27475Y175776D01*
X-27286Y174582D01*
X-27069Y173394D01*
X-26822Y172211D01*
X-26547Y171034D01*
X-26244Y169865D01*
X-25912Y168703D01*
X-25553Y167549D01*
X-25166Y166405D01*
X-24751Y165270D01*
X-24309Y164145D01*
X-23840Y163032D01*
X-23344Y161930D01*
X-22821Y160840D01*
X-22273Y159764D01*
X-21698Y158701D01*
X-21098Y157652D01*
X-20473Y156618D01*
X-19824Y155599D01*
X-19149Y154597D01*
X-18451Y153611D01*
X-17729Y152642D01*
X-16984Y151691D01*
X-16216Y150758D01*
X-15426Y149844D01*
X-14613Y148949D01*
X-13780Y148074D01*
X-12926Y147220D01*
X-12051Y146387D01*
X-11156Y145574D01*
X-10242Y144784D01*
X-9309Y144016D01*
X-8358Y143271D01*
X-7389Y142549D01*
X-6403Y141851D01*
X-5401Y141176D01*
X-4382Y140527D01*
X-3348Y139902D01*
X-2299Y139302D01*
X-1236Y138727D01*
X-160Y138179D01*
X930Y137656D01*
X2032Y137160D01*
X3145Y136691D01*
X4270Y136249D01*
X5405Y135834D01*
X6549Y135447D01*
X7703Y135088D01*
X8865Y134756D01*
X10034Y134453D01*
X11211Y134178D01*
X12394Y133931D01*
X13582Y133714D01*
X14776Y133525D01*
X15973Y133365D01*
X17174Y133233D01*
X18378Y133131D01*
X19584Y133058D01*
X20792Y133015D01*
X22000Y133000D01*
X158000Y133000D01*
X159208Y133015D01*
X160416Y133058D01*
X161622Y133131D01*
X162826Y133233D01*
X164027Y133365D01*
X165224Y133525D01*
X166418Y133714D01*
X167606Y133931D01*
X168789Y134178D01*
X169966Y134453D01*
X171135Y134756D01*
X172297Y135088D01*
X173451Y135447D01*
X174595Y135834D01*
X175730Y136249D01*
X176855Y136691D01*
X177968Y137160D01*
X179070Y137656D01*
X180160Y138179D01*
X181236Y138727D01*
X182299Y139302D01*
X183348Y139902D01*
X184382Y140527D01*
X185401Y141176D01*
X186403Y141851D01*
X187389Y142549D01*
X188358Y143271D01*
X189309Y144016D01*
X190242Y144784D01*
X191156Y145574D01*
X192051Y146387D01*
X192926Y147220D01*
X193780Y148074D01*
X194613Y148949D01*
X195426Y149844D01*
X196216Y150758D01*
X196984Y151691D01*
X197729Y152642D01*
X198451Y153611D01*
X199149Y154597D01*
X199824Y155599D01*
X200473Y156618D01*
X201098Y157652D01*
X201698Y158701D01*
X202273Y159764D01*
X202821Y160840D01*
X203344Y161930D01*
X203840Y163032D01*
X204309Y164145D01*
X204751Y165270D01*
X205166Y166405D01*
X205553Y167549D01*
X205912Y168703D01*
X206244Y169865D01*
X206547Y171034D01*
X206822Y172211D01*
X207069Y173394D01*
X207286Y174582D01*
X207475Y175776D01*
X207635Y176973D01*
X207767Y178174D01*
X207869Y179378D01*
X207942Y180584D01*
X207985Y181792D01*
X208000Y183000D01*
X208000Y677000D01*
X207985Y678208D01*
X207942Y679416D01*
X207869Y680622D01*
X207767Y681826D01*
X207635Y683027D01*
X207475Y684224D01*
X207286Y685418D01*
X207069Y686606D01*
X206822Y687789D01*
X206547Y688966D01*
X206244Y690135D01*
X205912Y691297D01*
X205553Y692451D01*
X205166Y693595D01*
X204751Y694730D01*
X204309Y695855D01*
X203840Y696968D01*
X203344Y698070D01*
X202821Y699160D01*
X202273Y700236D01*
X201698Y701299D01*
X201098Y702348D01*
X200473Y703382D01*
X199824Y704401D01*
X199149Y705403D01*
X198451Y706389D01*
X197729Y707358D01*
X196984Y708309D01*
X196216Y709242D01*
X195426Y710156D01*
X194613Y711051D01*
X193780Y711926D01*
X192926Y712780D01*
X192051Y713613D01*
X191156Y714426D01*
X190242Y715216D01*
X189309Y715984D01*
X188358Y716729D01*
X187389Y717451D01*
X186403Y718149D01*
X185401Y718824D01*
X184382Y719473D01*
X183348Y720098D01*
X182299Y720698D01*
X181236Y721273D01*
X180160Y721821D01*
X179070Y722344D01*
X177968Y722840D01*
X176855Y723309D01*
X175730Y723751D01*
X174595Y724166D01*
X173451Y724553D01*
X172297Y724912D01*
X171135Y725244D01*
X169966Y725547D01*
X168789Y725822D01*
X167606Y726069D01*
X166418Y726286D01*
X165224Y726475D01*
X164027Y726635D01*
X162826Y726767D01*
X161622Y726869D01*
X160416Y726942D01*
X159208Y726985D01*
X158000Y727000D01*
D11*
X260685Y744740D02*
X273352Y744740D01*
X273470Y744738D01*
X273589Y744732D01*
X273707Y744723D01*
X273824Y744709D01*
X273942Y744692D01*
X274058Y744670D01*
X274174Y744645D01*
X274289Y744617D01*
X274403Y744584D01*
X274515Y744548D01*
X274627Y744508D01*
X274737Y744465D01*
X274846Y744417D01*
X274953Y744367D01*
X275058Y744313D01*
X275162Y744255D01*
X275263Y744194D01*
X275363Y744130D01*
X275460Y744063D01*
X275555Y743992D01*
X275648Y743919D01*
X275738Y743842D01*
X275826Y743762D01*
X275911Y743680D01*
X275993Y743595D01*
X276073Y743507D01*
X276150Y743417D01*
X276223Y743324D01*
X276294Y743229D01*
X276361Y743132D01*
X276425Y743032D01*
X276486Y742931D01*
X276544Y742827D01*
X276598Y742722D01*
X276648Y742615D01*
X276696Y742506D01*
X276739Y742396D01*
X276779Y742284D01*
X276815Y742172D01*
X276848Y742058D01*
X276876Y741943D01*
X276901Y741827D01*
X276923Y741711D01*
X276940Y741593D01*
X276954Y741476D01*
X276963Y741358D01*
X276969Y741239D01*
X276971Y741121D01*
X276971Y739312D01*
X264304Y751814D02*
X260685Y756338D01*
X276971Y756338D01*
X276971Y751814D02*
X276971Y760862D01*
M02*
