G04 EAGLE Gerber RS-274X export*
G75*
%MOMM*%
%FSLAX34Y34*%
%LPD*%
%INSilkscreen Bottom*%
%IPPOS*%
%AMOC8*
5,1,8,0,0,1.08239X$1,22.5*%
G01*
%ADD10C,0.152400*%
%ADD11C,0.101600*%
%ADD12C,0.127000*%


D10*
X229238Y74374D02*
X229238Y77987D01*
X229236Y78106D01*
X229230Y78226D01*
X229220Y78345D01*
X229206Y78463D01*
X229189Y78582D01*
X229167Y78699D01*
X229142Y78816D01*
X229112Y78931D01*
X229079Y79046D01*
X229042Y79160D01*
X229002Y79272D01*
X228957Y79383D01*
X228909Y79492D01*
X228858Y79600D01*
X228803Y79706D01*
X228744Y79810D01*
X228682Y79912D01*
X228617Y80012D01*
X228548Y80110D01*
X228476Y80206D01*
X228401Y80299D01*
X228324Y80389D01*
X228243Y80477D01*
X228159Y80562D01*
X228072Y80644D01*
X227983Y80724D01*
X227891Y80800D01*
X227797Y80874D01*
X227700Y80944D01*
X227602Y81011D01*
X227501Y81075D01*
X227397Y81135D01*
X227292Y81192D01*
X227185Y81245D01*
X227077Y81295D01*
X226967Y81341D01*
X226855Y81383D01*
X226742Y81422D01*
X226628Y81457D01*
X226513Y81488D01*
X226396Y81516D01*
X226279Y81539D01*
X226162Y81559D01*
X226043Y81575D01*
X225924Y81587D01*
X225805Y81595D01*
X225686Y81599D01*
X225566Y81599D01*
X225447Y81595D01*
X225328Y81587D01*
X225209Y81575D01*
X225090Y81559D01*
X224973Y81539D01*
X224856Y81516D01*
X224739Y81488D01*
X224624Y81457D01*
X224510Y81422D01*
X224397Y81383D01*
X224285Y81341D01*
X224175Y81295D01*
X224067Y81245D01*
X223960Y81192D01*
X223855Y81135D01*
X223751Y81075D01*
X223650Y81011D01*
X223552Y80944D01*
X223455Y80874D01*
X223361Y80800D01*
X223269Y80724D01*
X223180Y80644D01*
X223093Y80562D01*
X223009Y80477D01*
X222928Y80389D01*
X222851Y80299D01*
X222776Y80206D01*
X222704Y80110D01*
X222635Y80012D01*
X222570Y79912D01*
X222508Y79810D01*
X222449Y79706D01*
X222394Y79600D01*
X222343Y79492D01*
X222295Y79383D01*
X222250Y79272D01*
X222210Y79160D01*
X222173Y79046D01*
X222140Y78931D01*
X222110Y78816D01*
X222085Y78699D01*
X222063Y78582D01*
X222046Y78463D01*
X222032Y78345D01*
X222022Y78226D01*
X222016Y78106D01*
X222014Y77987D01*
X222013Y77987D02*
X222013Y74374D01*
X222014Y74374D02*
X222016Y74255D01*
X222022Y74135D01*
X222032Y74016D01*
X222046Y73898D01*
X222063Y73779D01*
X222085Y73662D01*
X222110Y73545D01*
X222140Y73430D01*
X222173Y73315D01*
X222210Y73201D01*
X222250Y73089D01*
X222295Y72978D01*
X222343Y72869D01*
X222394Y72761D01*
X222449Y72655D01*
X222508Y72551D01*
X222570Y72449D01*
X222635Y72349D01*
X222704Y72251D01*
X222776Y72155D01*
X222851Y72062D01*
X222928Y71972D01*
X223009Y71884D01*
X223093Y71799D01*
X223180Y71717D01*
X223269Y71637D01*
X223361Y71561D01*
X223455Y71487D01*
X223552Y71417D01*
X223650Y71350D01*
X223751Y71286D01*
X223855Y71226D01*
X223960Y71169D01*
X224067Y71116D01*
X224175Y71066D01*
X224285Y71020D01*
X224397Y70978D01*
X224510Y70939D01*
X224624Y70904D01*
X224739Y70873D01*
X224856Y70845D01*
X224973Y70822D01*
X225090Y70802D01*
X225209Y70786D01*
X225328Y70774D01*
X225447Y70766D01*
X225566Y70762D01*
X225686Y70762D01*
X225805Y70766D01*
X225924Y70774D01*
X226043Y70786D01*
X226162Y70802D01*
X226279Y70822D01*
X226396Y70845D01*
X226513Y70873D01*
X226628Y70904D01*
X226742Y70939D01*
X226855Y70978D01*
X226967Y71020D01*
X227077Y71066D01*
X227185Y71116D01*
X227292Y71169D01*
X227397Y71226D01*
X227501Y71286D01*
X227602Y71350D01*
X227700Y71417D01*
X227797Y71487D01*
X227891Y71561D01*
X227983Y71637D01*
X228072Y71717D01*
X228159Y71799D01*
X228243Y71884D01*
X228324Y71972D01*
X228401Y72062D01*
X228476Y72155D01*
X228548Y72251D01*
X228617Y72349D01*
X228682Y72449D01*
X228744Y72551D01*
X228803Y72655D01*
X228858Y72761D01*
X228909Y72869D01*
X228957Y72978D01*
X229002Y73089D01*
X229042Y73201D01*
X229079Y73315D01*
X229112Y73430D01*
X229142Y73545D01*
X229167Y73662D01*
X229189Y73779D01*
X229206Y73898D01*
X229220Y74016D01*
X229230Y74135D01*
X229236Y74255D01*
X229238Y74374D01*
X215097Y81599D02*
X215097Y65343D01*
X215097Y81599D02*
X210581Y81599D01*
X210477Y81597D01*
X210374Y81591D01*
X210270Y81581D01*
X210167Y81567D01*
X210065Y81549D01*
X209964Y81528D01*
X209863Y81502D01*
X209764Y81473D01*
X209665Y81440D01*
X209568Y81403D01*
X209473Y81362D01*
X209379Y81318D01*
X209287Y81270D01*
X209197Y81219D01*
X209108Y81164D01*
X209022Y81106D01*
X208939Y81044D01*
X208857Y80980D01*
X208779Y80912D01*
X208703Y80842D01*
X208629Y80769D01*
X208559Y80692D01*
X208491Y80614D01*
X208427Y80532D01*
X208365Y80449D01*
X208307Y80363D01*
X208252Y80274D01*
X208201Y80184D01*
X208153Y80092D01*
X208109Y79998D01*
X208068Y79903D01*
X208031Y79806D01*
X207998Y79707D01*
X207969Y79608D01*
X207943Y79507D01*
X207922Y79406D01*
X207904Y79304D01*
X207890Y79201D01*
X207880Y79097D01*
X207874Y78994D01*
X207872Y78890D01*
X207872Y73471D01*
X207874Y73370D01*
X207880Y73269D01*
X207889Y73168D01*
X207902Y73067D01*
X207919Y72967D01*
X207940Y72868D01*
X207964Y72770D01*
X207992Y72673D01*
X208024Y72576D01*
X208059Y72481D01*
X208098Y72388D01*
X208140Y72296D01*
X208186Y72205D01*
X208235Y72116D01*
X208287Y72030D01*
X208343Y71945D01*
X208401Y71862D01*
X208463Y71782D01*
X208528Y71704D01*
X208595Y71628D01*
X208665Y71555D01*
X208738Y71485D01*
X208814Y71418D01*
X208892Y71353D01*
X208972Y71291D01*
X209055Y71233D01*
X209140Y71177D01*
X209227Y71125D01*
X209315Y71076D01*
X209406Y71030D01*
X209498Y70988D01*
X209591Y70949D01*
X209686Y70914D01*
X209783Y70882D01*
X209880Y70854D01*
X209978Y70830D01*
X210077Y70809D01*
X210177Y70792D01*
X210278Y70779D01*
X210379Y70770D01*
X210480Y70764D01*
X210581Y70762D01*
X215097Y70762D01*
X198914Y70762D02*
X194398Y70762D01*
X198914Y70762D02*
X199015Y70764D01*
X199116Y70770D01*
X199217Y70779D01*
X199318Y70792D01*
X199418Y70809D01*
X199517Y70830D01*
X199615Y70854D01*
X199712Y70882D01*
X199809Y70914D01*
X199904Y70949D01*
X199997Y70988D01*
X200089Y71030D01*
X200180Y71076D01*
X200269Y71125D01*
X200355Y71177D01*
X200440Y71233D01*
X200523Y71291D01*
X200603Y71353D01*
X200681Y71418D01*
X200757Y71485D01*
X200830Y71555D01*
X200900Y71628D01*
X200967Y71704D01*
X201032Y71782D01*
X201094Y71862D01*
X201152Y71945D01*
X201208Y72030D01*
X201260Y72116D01*
X201309Y72205D01*
X201355Y72296D01*
X201397Y72388D01*
X201436Y72481D01*
X201471Y72576D01*
X201503Y72673D01*
X201531Y72770D01*
X201555Y72868D01*
X201576Y72967D01*
X201593Y73067D01*
X201606Y73168D01*
X201615Y73269D01*
X201621Y73370D01*
X201623Y73471D01*
X201623Y77987D01*
X201622Y77987D02*
X201620Y78106D01*
X201614Y78226D01*
X201604Y78345D01*
X201590Y78463D01*
X201573Y78582D01*
X201551Y78699D01*
X201526Y78816D01*
X201496Y78931D01*
X201463Y79046D01*
X201426Y79160D01*
X201386Y79272D01*
X201341Y79383D01*
X201293Y79492D01*
X201242Y79600D01*
X201187Y79706D01*
X201128Y79810D01*
X201066Y79912D01*
X201001Y80012D01*
X200932Y80110D01*
X200860Y80206D01*
X200785Y80299D01*
X200708Y80389D01*
X200627Y80477D01*
X200543Y80562D01*
X200456Y80644D01*
X200367Y80724D01*
X200275Y80800D01*
X200181Y80874D01*
X200084Y80944D01*
X199986Y81011D01*
X199885Y81075D01*
X199781Y81135D01*
X199676Y81192D01*
X199569Y81245D01*
X199461Y81295D01*
X199351Y81341D01*
X199239Y81383D01*
X199126Y81422D01*
X199012Y81457D01*
X198897Y81488D01*
X198780Y81516D01*
X198663Y81539D01*
X198546Y81559D01*
X198427Y81575D01*
X198308Y81587D01*
X198189Y81595D01*
X198070Y81599D01*
X197950Y81599D01*
X197831Y81595D01*
X197712Y81587D01*
X197593Y81575D01*
X197474Y81559D01*
X197357Y81539D01*
X197240Y81516D01*
X197123Y81488D01*
X197008Y81457D01*
X196894Y81422D01*
X196781Y81383D01*
X196669Y81341D01*
X196559Y81295D01*
X196451Y81245D01*
X196344Y81192D01*
X196239Y81135D01*
X196135Y81075D01*
X196034Y81011D01*
X195936Y80944D01*
X195839Y80874D01*
X195745Y80800D01*
X195653Y80724D01*
X195564Y80644D01*
X195477Y80562D01*
X195393Y80477D01*
X195312Y80389D01*
X195235Y80299D01*
X195160Y80206D01*
X195088Y80110D01*
X195019Y80012D01*
X194954Y79912D01*
X194892Y79810D01*
X194833Y79706D01*
X194778Y79600D01*
X194727Y79492D01*
X194679Y79383D01*
X194634Y79272D01*
X194594Y79160D01*
X194557Y79046D01*
X194524Y78931D01*
X194494Y78816D01*
X194469Y78699D01*
X194447Y78582D01*
X194430Y78463D01*
X194416Y78345D01*
X194406Y78226D01*
X194400Y78106D01*
X194398Y77987D01*
X194398Y76181D01*
X201623Y76181D01*
X187555Y70762D02*
X187555Y81599D01*
X183039Y81599D01*
X182935Y81597D01*
X182832Y81591D01*
X182728Y81581D01*
X182625Y81567D01*
X182523Y81549D01*
X182422Y81528D01*
X182321Y81502D01*
X182222Y81473D01*
X182123Y81440D01*
X182026Y81403D01*
X181931Y81362D01*
X181837Y81318D01*
X181745Y81270D01*
X181655Y81219D01*
X181566Y81164D01*
X181480Y81106D01*
X181397Y81044D01*
X181315Y80980D01*
X181237Y80912D01*
X181161Y80842D01*
X181087Y80769D01*
X181017Y80692D01*
X180949Y80614D01*
X180885Y80532D01*
X180823Y80449D01*
X180765Y80363D01*
X180710Y80274D01*
X180659Y80184D01*
X180611Y80092D01*
X180567Y79998D01*
X180526Y79903D01*
X180489Y79806D01*
X180456Y79707D01*
X180427Y79608D01*
X180401Y79507D01*
X180380Y79406D01*
X180362Y79304D01*
X180348Y79201D01*
X180338Y79097D01*
X180332Y78994D01*
X180330Y78890D01*
X180330Y70762D01*
X173522Y70762D02*
X173522Y81599D01*
X173973Y86115D02*
X173973Y87018D01*
X173070Y87018D01*
X173070Y86115D01*
X173973Y86115D01*
X166713Y81599D02*
X166713Y70762D01*
X166713Y81599D02*
X162198Y81599D01*
X162094Y81597D01*
X161991Y81591D01*
X161887Y81581D01*
X161784Y81567D01*
X161682Y81549D01*
X161581Y81528D01*
X161480Y81502D01*
X161381Y81473D01*
X161282Y81440D01*
X161185Y81403D01*
X161090Y81362D01*
X160996Y81318D01*
X160904Y81270D01*
X160814Y81219D01*
X160725Y81164D01*
X160639Y81106D01*
X160556Y81044D01*
X160474Y80980D01*
X160396Y80912D01*
X160320Y80842D01*
X160246Y80769D01*
X160176Y80692D01*
X160108Y80614D01*
X160044Y80532D01*
X159982Y80449D01*
X159924Y80363D01*
X159869Y80274D01*
X159818Y80184D01*
X159770Y80092D01*
X159726Y79998D01*
X159685Y79903D01*
X159648Y79806D01*
X159615Y79707D01*
X159586Y79608D01*
X159560Y79507D01*
X159539Y79406D01*
X159521Y79304D01*
X159507Y79201D01*
X159497Y79097D01*
X159491Y78994D01*
X159489Y78890D01*
X159488Y78890D02*
X159488Y70762D01*
X149554Y70762D02*
X153166Y81599D01*
X145941Y81599D02*
X149554Y70762D01*
X137431Y70762D02*
X132915Y70762D01*
X137431Y70762D02*
X137532Y70764D01*
X137633Y70770D01*
X137734Y70779D01*
X137835Y70792D01*
X137935Y70809D01*
X138034Y70830D01*
X138132Y70854D01*
X138229Y70882D01*
X138326Y70914D01*
X138421Y70949D01*
X138514Y70988D01*
X138606Y71030D01*
X138697Y71076D01*
X138786Y71125D01*
X138872Y71177D01*
X138957Y71233D01*
X139040Y71291D01*
X139120Y71353D01*
X139198Y71418D01*
X139274Y71485D01*
X139347Y71555D01*
X139417Y71628D01*
X139484Y71704D01*
X139549Y71782D01*
X139611Y71862D01*
X139669Y71945D01*
X139725Y72030D01*
X139777Y72116D01*
X139826Y72205D01*
X139872Y72296D01*
X139914Y72388D01*
X139953Y72481D01*
X139988Y72576D01*
X140020Y72673D01*
X140048Y72770D01*
X140072Y72868D01*
X140093Y72967D01*
X140110Y73067D01*
X140123Y73168D01*
X140132Y73269D01*
X140138Y73370D01*
X140140Y73471D01*
X140140Y77987D01*
X140138Y78106D01*
X140132Y78226D01*
X140122Y78345D01*
X140108Y78463D01*
X140091Y78582D01*
X140069Y78699D01*
X140044Y78816D01*
X140014Y78931D01*
X139981Y79046D01*
X139944Y79160D01*
X139904Y79272D01*
X139859Y79383D01*
X139811Y79492D01*
X139760Y79600D01*
X139705Y79706D01*
X139646Y79810D01*
X139584Y79912D01*
X139519Y80012D01*
X139450Y80110D01*
X139378Y80206D01*
X139303Y80299D01*
X139226Y80389D01*
X139145Y80477D01*
X139061Y80562D01*
X138974Y80644D01*
X138885Y80724D01*
X138793Y80800D01*
X138699Y80874D01*
X138602Y80944D01*
X138504Y81011D01*
X138403Y81075D01*
X138299Y81135D01*
X138194Y81192D01*
X138087Y81245D01*
X137979Y81295D01*
X137869Y81341D01*
X137757Y81383D01*
X137644Y81422D01*
X137530Y81457D01*
X137415Y81488D01*
X137298Y81516D01*
X137181Y81539D01*
X137064Y81559D01*
X136945Y81575D01*
X136826Y81587D01*
X136707Y81595D01*
X136588Y81599D01*
X136468Y81599D01*
X136349Y81595D01*
X136230Y81587D01*
X136111Y81575D01*
X135992Y81559D01*
X135875Y81539D01*
X135758Y81516D01*
X135641Y81488D01*
X135526Y81457D01*
X135412Y81422D01*
X135299Y81383D01*
X135187Y81341D01*
X135077Y81295D01*
X134969Y81245D01*
X134862Y81192D01*
X134757Y81135D01*
X134653Y81075D01*
X134552Y81011D01*
X134454Y80944D01*
X134357Y80874D01*
X134263Y80800D01*
X134171Y80724D01*
X134082Y80644D01*
X133995Y80562D01*
X133911Y80477D01*
X133830Y80389D01*
X133753Y80299D01*
X133678Y80206D01*
X133606Y80110D01*
X133537Y80012D01*
X133472Y79912D01*
X133410Y79810D01*
X133351Y79706D01*
X133296Y79600D01*
X133245Y79492D01*
X133197Y79383D01*
X133152Y79272D01*
X133112Y79160D01*
X133075Y79046D01*
X133042Y78931D01*
X133012Y78816D01*
X132987Y78699D01*
X132965Y78582D01*
X132948Y78463D01*
X132934Y78345D01*
X132924Y78226D01*
X132918Y78106D01*
X132916Y77987D01*
X132915Y77987D02*
X132915Y76181D01*
X140140Y76181D01*
X125987Y70762D02*
X125987Y81599D01*
X120569Y81599D01*
X120569Y79793D01*
X116949Y81599D02*
X111530Y81599D01*
X115142Y87018D02*
X115142Y73471D01*
X115140Y73370D01*
X115134Y73269D01*
X115125Y73168D01*
X115112Y73067D01*
X115095Y72967D01*
X115074Y72868D01*
X115050Y72770D01*
X115022Y72673D01*
X114990Y72576D01*
X114955Y72481D01*
X114916Y72388D01*
X114874Y72296D01*
X114828Y72205D01*
X114779Y72116D01*
X114727Y72030D01*
X114671Y71945D01*
X114613Y71862D01*
X114551Y71782D01*
X114486Y71704D01*
X114419Y71628D01*
X114349Y71555D01*
X114276Y71485D01*
X114200Y71418D01*
X114122Y71353D01*
X114042Y71291D01*
X113959Y71233D01*
X113874Y71177D01*
X113787Y71125D01*
X113699Y71076D01*
X113608Y71030D01*
X113516Y70988D01*
X113423Y70949D01*
X113328Y70914D01*
X113231Y70882D01*
X113134Y70854D01*
X113036Y70830D01*
X112937Y70809D01*
X112837Y70792D01*
X112736Y70779D01*
X112635Y70770D01*
X112534Y70764D01*
X112433Y70762D01*
X111530Y70762D01*
X103042Y70762D02*
X98527Y70762D01*
X103042Y70762D02*
X103143Y70764D01*
X103244Y70770D01*
X103345Y70779D01*
X103446Y70792D01*
X103546Y70809D01*
X103645Y70830D01*
X103743Y70854D01*
X103840Y70882D01*
X103937Y70914D01*
X104032Y70949D01*
X104125Y70988D01*
X104217Y71030D01*
X104308Y71076D01*
X104396Y71125D01*
X104483Y71177D01*
X104568Y71233D01*
X104651Y71291D01*
X104731Y71353D01*
X104809Y71418D01*
X104885Y71485D01*
X104958Y71555D01*
X105028Y71628D01*
X105095Y71704D01*
X105160Y71782D01*
X105222Y71862D01*
X105280Y71945D01*
X105336Y72030D01*
X105388Y72116D01*
X105437Y72205D01*
X105483Y72296D01*
X105525Y72388D01*
X105564Y72481D01*
X105599Y72576D01*
X105631Y72673D01*
X105659Y72770D01*
X105683Y72868D01*
X105704Y72967D01*
X105721Y73067D01*
X105734Y73168D01*
X105743Y73269D01*
X105749Y73370D01*
X105751Y73471D01*
X105751Y77987D01*
X105749Y78106D01*
X105743Y78226D01*
X105733Y78345D01*
X105719Y78463D01*
X105702Y78582D01*
X105680Y78699D01*
X105655Y78816D01*
X105625Y78931D01*
X105592Y79046D01*
X105555Y79160D01*
X105515Y79272D01*
X105470Y79383D01*
X105422Y79492D01*
X105371Y79600D01*
X105316Y79706D01*
X105257Y79810D01*
X105195Y79912D01*
X105130Y80012D01*
X105061Y80110D01*
X104989Y80206D01*
X104914Y80299D01*
X104837Y80389D01*
X104756Y80477D01*
X104672Y80562D01*
X104585Y80644D01*
X104496Y80724D01*
X104404Y80800D01*
X104310Y80874D01*
X104213Y80944D01*
X104115Y81011D01*
X104014Y81075D01*
X103910Y81135D01*
X103805Y81192D01*
X103698Y81245D01*
X103590Y81295D01*
X103480Y81341D01*
X103368Y81383D01*
X103255Y81422D01*
X103141Y81457D01*
X103026Y81488D01*
X102909Y81516D01*
X102792Y81539D01*
X102675Y81559D01*
X102556Y81575D01*
X102437Y81587D01*
X102318Y81595D01*
X102199Y81599D01*
X102079Y81599D01*
X101960Y81595D01*
X101841Y81587D01*
X101722Y81575D01*
X101603Y81559D01*
X101486Y81539D01*
X101369Y81516D01*
X101252Y81488D01*
X101137Y81457D01*
X101023Y81422D01*
X100910Y81383D01*
X100798Y81341D01*
X100688Y81295D01*
X100580Y81245D01*
X100473Y81192D01*
X100368Y81135D01*
X100264Y81075D01*
X100163Y81011D01*
X100065Y80944D01*
X99968Y80874D01*
X99874Y80800D01*
X99782Y80724D01*
X99693Y80644D01*
X99606Y80562D01*
X99522Y80477D01*
X99441Y80389D01*
X99364Y80299D01*
X99289Y80206D01*
X99217Y80110D01*
X99148Y80012D01*
X99083Y79912D01*
X99021Y79810D01*
X98962Y79706D01*
X98907Y79600D01*
X98856Y79492D01*
X98808Y79383D01*
X98763Y79272D01*
X98723Y79160D01*
X98686Y79046D01*
X98653Y78931D01*
X98623Y78816D01*
X98598Y78699D01*
X98576Y78582D01*
X98559Y78463D01*
X98545Y78345D01*
X98535Y78226D01*
X98529Y78106D01*
X98527Y77987D01*
X98527Y76181D01*
X105751Y76181D01*
X91599Y81599D02*
X91599Y70762D01*
X91599Y81599D02*
X86180Y81599D01*
X86180Y79793D01*
X81749Y71665D02*
X81749Y70762D01*
X81749Y71665D02*
X80846Y71665D01*
X80846Y70762D01*
X81749Y70762D01*
X75010Y74374D02*
X75010Y77987D01*
X75008Y78106D01*
X75002Y78226D01*
X74992Y78345D01*
X74978Y78463D01*
X74961Y78582D01*
X74939Y78699D01*
X74914Y78816D01*
X74884Y78931D01*
X74851Y79046D01*
X74814Y79160D01*
X74774Y79272D01*
X74729Y79383D01*
X74681Y79492D01*
X74630Y79600D01*
X74575Y79706D01*
X74516Y79810D01*
X74454Y79912D01*
X74389Y80012D01*
X74320Y80110D01*
X74248Y80206D01*
X74173Y80299D01*
X74096Y80389D01*
X74015Y80477D01*
X73931Y80562D01*
X73844Y80644D01*
X73755Y80724D01*
X73663Y80800D01*
X73569Y80874D01*
X73472Y80944D01*
X73374Y81011D01*
X73273Y81075D01*
X73169Y81135D01*
X73064Y81192D01*
X72957Y81245D01*
X72849Y81295D01*
X72739Y81341D01*
X72627Y81383D01*
X72514Y81422D01*
X72400Y81457D01*
X72285Y81488D01*
X72168Y81516D01*
X72051Y81539D01*
X71934Y81559D01*
X71815Y81575D01*
X71696Y81587D01*
X71577Y81595D01*
X71458Y81599D01*
X71338Y81599D01*
X71219Y81595D01*
X71100Y81587D01*
X70981Y81575D01*
X70862Y81559D01*
X70745Y81539D01*
X70628Y81516D01*
X70511Y81488D01*
X70396Y81457D01*
X70282Y81422D01*
X70169Y81383D01*
X70057Y81341D01*
X69947Y81295D01*
X69839Y81245D01*
X69732Y81192D01*
X69627Y81135D01*
X69523Y81075D01*
X69422Y81011D01*
X69324Y80944D01*
X69227Y80874D01*
X69133Y80800D01*
X69041Y80724D01*
X68952Y80644D01*
X68865Y80562D01*
X68781Y80477D01*
X68700Y80389D01*
X68623Y80299D01*
X68548Y80206D01*
X68476Y80110D01*
X68407Y80012D01*
X68342Y79912D01*
X68280Y79810D01*
X68221Y79706D01*
X68166Y79600D01*
X68115Y79492D01*
X68067Y79383D01*
X68022Y79272D01*
X67982Y79160D01*
X67945Y79046D01*
X67912Y78931D01*
X67882Y78816D01*
X67857Y78699D01*
X67835Y78582D01*
X67818Y78463D01*
X67804Y78345D01*
X67794Y78226D01*
X67788Y78106D01*
X67786Y77987D01*
X67785Y77987D02*
X67785Y74374D01*
X67786Y74374D02*
X67788Y74255D01*
X67794Y74135D01*
X67804Y74016D01*
X67818Y73898D01*
X67835Y73779D01*
X67857Y73662D01*
X67882Y73545D01*
X67912Y73430D01*
X67945Y73315D01*
X67982Y73201D01*
X68022Y73089D01*
X68067Y72978D01*
X68115Y72869D01*
X68166Y72761D01*
X68221Y72655D01*
X68280Y72551D01*
X68342Y72449D01*
X68407Y72349D01*
X68476Y72251D01*
X68548Y72155D01*
X68623Y72062D01*
X68700Y71972D01*
X68781Y71884D01*
X68865Y71799D01*
X68952Y71717D01*
X69041Y71637D01*
X69133Y71561D01*
X69227Y71487D01*
X69324Y71417D01*
X69422Y71350D01*
X69523Y71286D01*
X69627Y71226D01*
X69732Y71169D01*
X69839Y71116D01*
X69947Y71066D01*
X70057Y71020D01*
X70169Y70978D01*
X70282Y70939D01*
X70396Y70904D01*
X70511Y70873D01*
X70628Y70845D01*
X70745Y70822D01*
X70862Y70802D01*
X70981Y70786D01*
X71100Y70774D01*
X71219Y70766D01*
X71338Y70762D01*
X71458Y70762D01*
X71577Y70766D01*
X71696Y70774D01*
X71815Y70786D01*
X71934Y70802D01*
X72051Y70822D01*
X72168Y70845D01*
X72285Y70873D01*
X72400Y70904D01*
X72514Y70939D01*
X72627Y70978D01*
X72739Y71020D01*
X72849Y71066D01*
X72957Y71116D01*
X73064Y71169D01*
X73169Y71226D01*
X73273Y71286D01*
X73374Y71350D01*
X73472Y71417D01*
X73569Y71487D01*
X73663Y71561D01*
X73755Y71637D01*
X73844Y71717D01*
X73931Y71799D01*
X74015Y71884D01*
X74096Y71972D01*
X74173Y72062D01*
X74248Y72155D01*
X74320Y72251D01*
X74389Y72349D01*
X74454Y72449D01*
X74516Y72551D01*
X74575Y72655D01*
X74630Y72761D01*
X74681Y72869D01*
X74729Y72978D01*
X74774Y73089D01*
X74814Y73201D01*
X74851Y73315D01*
X74884Y73430D01*
X74914Y73545D01*
X74939Y73662D01*
X74961Y73779D01*
X74978Y73898D01*
X74992Y74016D01*
X75002Y74135D01*
X75008Y74255D01*
X75010Y74374D01*
X60857Y70762D02*
X60857Y81599D01*
X55438Y81599D01*
X55438Y79793D01*
X47885Y70762D02*
X43370Y70762D01*
X47885Y70762D02*
X47986Y70764D01*
X48087Y70770D01*
X48188Y70779D01*
X48289Y70792D01*
X48389Y70809D01*
X48488Y70830D01*
X48586Y70854D01*
X48683Y70882D01*
X48780Y70914D01*
X48875Y70949D01*
X48968Y70988D01*
X49060Y71030D01*
X49151Y71076D01*
X49239Y71125D01*
X49326Y71177D01*
X49411Y71233D01*
X49494Y71291D01*
X49574Y71353D01*
X49652Y71418D01*
X49728Y71485D01*
X49801Y71555D01*
X49871Y71628D01*
X49938Y71704D01*
X50003Y71782D01*
X50065Y71862D01*
X50123Y71945D01*
X50179Y72030D01*
X50231Y72116D01*
X50280Y72205D01*
X50326Y72296D01*
X50368Y72388D01*
X50407Y72481D01*
X50442Y72576D01*
X50474Y72673D01*
X50502Y72770D01*
X50526Y72868D01*
X50547Y72967D01*
X50564Y73067D01*
X50577Y73168D01*
X50586Y73269D01*
X50592Y73370D01*
X50594Y73471D01*
X50594Y78890D01*
X50592Y78991D01*
X50586Y79092D01*
X50577Y79193D01*
X50564Y79294D01*
X50547Y79394D01*
X50526Y79493D01*
X50502Y79591D01*
X50474Y79688D01*
X50442Y79785D01*
X50407Y79880D01*
X50368Y79973D01*
X50326Y80065D01*
X50280Y80156D01*
X50231Y80245D01*
X50179Y80331D01*
X50123Y80416D01*
X50065Y80499D01*
X50003Y80579D01*
X49938Y80657D01*
X49871Y80733D01*
X49801Y80806D01*
X49728Y80876D01*
X49652Y80943D01*
X49574Y81008D01*
X49494Y81070D01*
X49411Y81128D01*
X49326Y81184D01*
X49240Y81236D01*
X49151Y81285D01*
X49060Y81331D01*
X48968Y81373D01*
X48875Y81412D01*
X48780Y81447D01*
X48683Y81479D01*
X48586Y81507D01*
X48488Y81531D01*
X48389Y81552D01*
X48289Y81569D01*
X48188Y81582D01*
X48087Y81591D01*
X47986Y81597D01*
X47885Y81599D01*
X43370Y81599D01*
X43370Y68053D01*
X43372Y67952D01*
X43378Y67851D01*
X43387Y67750D01*
X43400Y67649D01*
X43417Y67549D01*
X43438Y67450D01*
X43462Y67352D01*
X43490Y67255D01*
X43522Y67158D01*
X43557Y67063D01*
X43596Y66970D01*
X43638Y66878D01*
X43684Y66787D01*
X43733Y66699D01*
X43785Y66612D01*
X43841Y66527D01*
X43899Y66444D01*
X43961Y66364D01*
X44026Y66286D01*
X44093Y66210D01*
X44163Y66137D01*
X44236Y66067D01*
X44312Y66000D01*
X44390Y65935D01*
X44470Y65873D01*
X44553Y65815D01*
X44638Y65759D01*
X44725Y65707D01*
X44813Y65658D01*
X44904Y65612D01*
X44996Y65570D01*
X45089Y65531D01*
X45184Y65496D01*
X45281Y65464D01*
X45378Y65436D01*
X45476Y65412D01*
X45575Y65391D01*
X45675Y65374D01*
X45776Y65361D01*
X45877Y65352D01*
X45978Y65346D01*
X46079Y65344D01*
X46079Y65343D02*
X49691Y65343D01*
X148786Y130762D02*
X148786Y141599D01*
X149238Y146115D02*
X149238Y147018D01*
X148335Y147018D01*
X148335Y146115D01*
X149238Y146115D01*
X141978Y141599D02*
X141978Y130762D01*
X141978Y141599D02*
X137463Y141599D01*
X137359Y141597D01*
X137256Y141591D01*
X137152Y141581D01*
X137049Y141567D01*
X136947Y141549D01*
X136846Y141528D01*
X136745Y141502D01*
X136646Y141473D01*
X136547Y141440D01*
X136450Y141403D01*
X136355Y141362D01*
X136261Y141318D01*
X136169Y141270D01*
X136079Y141219D01*
X135990Y141164D01*
X135904Y141106D01*
X135821Y141044D01*
X135739Y140980D01*
X135661Y140912D01*
X135585Y140842D01*
X135511Y140769D01*
X135441Y140692D01*
X135373Y140614D01*
X135309Y140532D01*
X135247Y140449D01*
X135189Y140363D01*
X135134Y140274D01*
X135083Y140184D01*
X135035Y140092D01*
X134991Y139998D01*
X134950Y139903D01*
X134913Y139806D01*
X134880Y139707D01*
X134851Y139608D01*
X134825Y139507D01*
X134804Y139406D01*
X134786Y139304D01*
X134772Y139201D01*
X134762Y139097D01*
X134756Y138994D01*
X134754Y138890D01*
X134753Y138890D02*
X134753Y130762D01*
X124819Y130762D02*
X128431Y141599D01*
X121206Y141599D02*
X124819Y130762D01*
X112696Y130762D02*
X108180Y130762D01*
X112696Y130762D02*
X112797Y130764D01*
X112898Y130770D01*
X112999Y130779D01*
X113100Y130792D01*
X113200Y130809D01*
X113299Y130830D01*
X113397Y130854D01*
X113494Y130882D01*
X113591Y130914D01*
X113686Y130949D01*
X113779Y130988D01*
X113871Y131030D01*
X113962Y131076D01*
X114050Y131125D01*
X114137Y131177D01*
X114222Y131233D01*
X114305Y131291D01*
X114385Y131353D01*
X114463Y131418D01*
X114539Y131485D01*
X114612Y131555D01*
X114682Y131628D01*
X114749Y131704D01*
X114814Y131782D01*
X114876Y131862D01*
X114934Y131945D01*
X114990Y132030D01*
X115042Y132116D01*
X115091Y132205D01*
X115137Y132296D01*
X115179Y132388D01*
X115218Y132481D01*
X115253Y132576D01*
X115285Y132673D01*
X115313Y132770D01*
X115337Y132868D01*
X115358Y132967D01*
X115375Y133067D01*
X115388Y133168D01*
X115397Y133269D01*
X115403Y133370D01*
X115405Y133471D01*
X115405Y137987D01*
X115403Y138106D01*
X115397Y138226D01*
X115387Y138345D01*
X115373Y138463D01*
X115356Y138582D01*
X115334Y138699D01*
X115309Y138816D01*
X115279Y138931D01*
X115246Y139046D01*
X115209Y139160D01*
X115169Y139272D01*
X115124Y139383D01*
X115076Y139492D01*
X115025Y139600D01*
X114970Y139706D01*
X114911Y139810D01*
X114849Y139912D01*
X114784Y140012D01*
X114715Y140110D01*
X114643Y140206D01*
X114568Y140299D01*
X114491Y140389D01*
X114410Y140477D01*
X114326Y140562D01*
X114239Y140644D01*
X114150Y140724D01*
X114058Y140800D01*
X113964Y140874D01*
X113867Y140944D01*
X113769Y141011D01*
X113668Y141075D01*
X113564Y141135D01*
X113459Y141192D01*
X113352Y141245D01*
X113244Y141295D01*
X113134Y141341D01*
X113022Y141383D01*
X112909Y141422D01*
X112795Y141457D01*
X112680Y141488D01*
X112563Y141516D01*
X112446Y141539D01*
X112329Y141559D01*
X112210Y141575D01*
X112091Y141587D01*
X111972Y141595D01*
X111853Y141599D01*
X111733Y141599D01*
X111614Y141595D01*
X111495Y141587D01*
X111376Y141575D01*
X111257Y141559D01*
X111140Y141539D01*
X111023Y141516D01*
X110906Y141488D01*
X110791Y141457D01*
X110677Y141422D01*
X110564Y141383D01*
X110452Y141341D01*
X110342Y141295D01*
X110234Y141245D01*
X110127Y141192D01*
X110022Y141135D01*
X109918Y141075D01*
X109817Y141011D01*
X109719Y140944D01*
X109622Y140874D01*
X109528Y140800D01*
X109436Y140724D01*
X109347Y140644D01*
X109260Y140562D01*
X109176Y140477D01*
X109095Y140389D01*
X109018Y140299D01*
X108943Y140206D01*
X108871Y140110D01*
X108802Y140012D01*
X108737Y139912D01*
X108675Y139810D01*
X108616Y139706D01*
X108561Y139600D01*
X108510Y139492D01*
X108462Y139383D01*
X108417Y139272D01*
X108377Y139160D01*
X108340Y139046D01*
X108307Y138931D01*
X108277Y138816D01*
X108252Y138699D01*
X108230Y138582D01*
X108213Y138463D01*
X108199Y138345D01*
X108189Y138226D01*
X108183Y138106D01*
X108181Y137987D01*
X108180Y137987D02*
X108180Y136181D01*
X115405Y136181D01*
X101252Y130762D02*
X101252Y141599D01*
X95833Y141599D01*
X95833Y139793D01*
X92213Y141599D02*
X86795Y141599D01*
X90407Y147018D02*
X90407Y133471D01*
X90405Y133370D01*
X90399Y133269D01*
X90390Y133168D01*
X90377Y133067D01*
X90360Y132967D01*
X90339Y132868D01*
X90315Y132770D01*
X90287Y132673D01*
X90255Y132576D01*
X90220Y132481D01*
X90181Y132388D01*
X90139Y132296D01*
X90093Y132205D01*
X90044Y132116D01*
X89992Y132030D01*
X89936Y131945D01*
X89878Y131862D01*
X89816Y131782D01*
X89751Y131704D01*
X89684Y131628D01*
X89614Y131555D01*
X89541Y131485D01*
X89465Y131418D01*
X89387Y131353D01*
X89307Y131291D01*
X89224Y131233D01*
X89139Y131177D01*
X89052Y131125D01*
X88964Y131076D01*
X88873Y131030D01*
X88781Y130988D01*
X88688Y130949D01*
X88593Y130914D01*
X88496Y130882D01*
X88399Y130854D01*
X88301Y130830D01*
X88202Y130809D01*
X88102Y130792D01*
X88001Y130779D01*
X87900Y130770D01*
X87799Y130764D01*
X87698Y130762D01*
X86795Y130762D01*
X78307Y130762D02*
X73792Y130762D01*
X78307Y130762D02*
X78408Y130764D01*
X78509Y130770D01*
X78610Y130779D01*
X78711Y130792D01*
X78811Y130809D01*
X78910Y130830D01*
X79008Y130854D01*
X79105Y130882D01*
X79202Y130914D01*
X79297Y130949D01*
X79390Y130988D01*
X79482Y131030D01*
X79573Y131076D01*
X79661Y131125D01*
X79748Y131177D01*
X79833Y131233D01*
X79916Y131291D01*
X79996Y131353D01*
X80074Y131418D01*
X80150Y131485D01*
X80223Y131555D01*
X80293Y131628D01*
X80360Y131704D01*
X80425Y131782D01*
X80487Y131862D01*
X80545Y131945D01*
X80601Y132030D01*
X80653Y132116D01*
X80702Y132205D01*
X80748Y132296D01*
X80790Y132388D01*
X80829Y132481D01*
X80864Y132576D01*
X80896Y132673D01*
X80924Y132770D01*
X80948Y132868D01*
X80969Y132967D01*
X80986Y133067D01*
X80999Y133168D01*
X81008Y133269D01*
X81014Y133370D01*
X81016Y133471D01*
X81016Y137987D01*
X81014Y138106D01*
X81008Y138226D01*
X80998Y138345D01*
X80984Y138463D01*
X80967Y138582D01*
X80945Y138699D01*
X80920Y138816D01*
X80890Y138931D01*
X80857Y139046D01*
X80820Y139160D01*
X80780Y139272D01*
X80735Y139383D01*
X80687Y139492D01*
X80636Y139600D01*
X80581Y139706D01*
X80522Y139810D01*
X80460Y139912D01*
X80395Y140012D01*
X80326Y140110D01*
X80254Y140206D01*
X80179Y140299D01*
X80102Y140389D01*
X80021Y140477D01*
X79937Y140562D01*
X79850Y140644D01*
X79761Y140724D01*
X79669Y140800D01*
X79575Y140874D01*
X79478Y140944D01*
X79380Y141011D01*
X79279Y141075D01*
X79175Y141135D01*
X79070Y141192D01*
X78963Y141245D01*
X78855Y141295D01*
X78745Y141341D01*
X78633Y141383D01*
X78520Y141422D01*
X78406Y141457D01*
X78291Y141488D01*
X78174Y141516D01*
X78057Y141539D01*
X77940Y141559D01*
X77821Y141575D01*
X77702Y141587D01*
X77583Y141595D01*
X77464Y141599D01*
X77344Y141599D01*
X77225Y141595D01*
X77106Y141587D01*
X76987Y141575D01*
X76868Y141559D01*
X76751Y141539D01*
X76634Y141516D01*
X76517Y141488D01*
X76402Y141457D01*
X76288Y141422D01*
X76175Y141383D01*
X76063Y141341D01*
X75953Y141295D01*
X75845Y141245D01*
X75738Y141192D01*
X75633Y141135D01*
X75529Y141075D01*
X75428Y141011D01*
X75330Y140944D01*
X75233Y140874D01*
X75139Y140800D01*
X75047Y140724D01*
X74958Y140644D01*
X74871Y140562D01*
X74787Y140477D01*
X74706Y140389D01*
X74629Y140299D01*
X74554Y140206D01*
X74482Y140110D01*
X74413Y140012D01*
X74348Y139912D01*
X74286Y139810D01*
X74227Y139706D01*
X74172Y139600D01*
X74121Y139492D01*
X74073Y139383D01*
X74028Y139272D01*
X73988Y139160D01*
X73951Y139046D01*
X73918Y138931D01*
X73888Y138816D01*
X73863Y138699D01*
X73841Y138582D01*
X73824Y138463D01*
X73810Y138345D01*
X73800Y138226D01*
X73794Y138106D01*
X73792Y137987D01*
X73792Y136181D01*
X81016Y136181D01*
X66863Y130762D02*
X66863Y141599D01*
X61445Y141599D01*
X61445Y139793D01*
X45103Y137084D02*
X41039Y137084D01*
X45103Y137084D02*
X45215Y137082D01*
X45326Y137076D01*
X45437Y137066D01*
X45548Y137053D01*
X45658Y137035D01*
X45767Y137013D01*
X45876Y136988D01*
X45984Y136959D01*
X46090Y136926D01*
X46196Y136889D01*
X46300Y136849D01*
X46402Y136805D01*
X46503Y136757D01*
X46602Y136706D01*
X46700Y136651D01*
X46795Y136593D01*
X46888Y136532D01*
X46979Y136467D01*
X47068Y136399D01*
X47154Y136328D01*
X47237Y136255D01*
X47318Y136178D01*
X47397Y136098D01*
X47472Y136016D01*
X47544Y135931D01*
X47614Y135844D01*
X47680Y135754D01*
X47743Y135662D01*
X47803Y135567D01*
X47859Y135471D01*
X47912Y135373D01*
X47961Y135273D01*
X48007Y135171D01*
X48049Y135068D01*
X48088Y134963D01*
X48123Y134857D01*
X48154Y134750D01*
X48181Y134642D01*
X48205Y134533D01*
X48224Y134423D01*
X48240Y134313D01*
X48252Y134202D01*
X48260Y134090D01*
X48264Y133979D01*
X48264Y133867D01*
X48260Y133756D01*
X48252Y133644D01*
X48240Y133533D01*
X48224Y133423D01*
X48205Y133313D01*
X48181Y133204D01*
X48154Y133096D01*
X48123Y132989D01*
X48088Y132883D01*
X48049Y132778D01*
X48007Y132675D01*
X47961Y132573D01*
X47912Y132473D01*
X47859Y132375D01*
X47803Y132279D01*
X47743Y132184D01*
X47680Y132092D01*
X47614Y132002D01*
X47544Y131915D01*
X47472Y131830D01*
X47397Y131748D01*
X47318Y131668D01*
X47237Y131591D01*
X47154Y131518D01*
X47068Y131447D01*
X46979Y131379D01*
X46888Y131314D01*
X46795Y131253D01*
X46700Y131195D01*
X46602Y131140D01*
X46503Y131089D01*
X46402Y131041D01*
X46300Y130997D01*
X46196Y130957D01*
X46090Y130920D01*
X45984Y130887D01*
X45876Y130858D01*
X45767Y130833D01*
X45658Y130811D01*
X45548Y130793D01*
X45437Y130780D01*
X45326Y130770D01*
X45215Y130764D01*
X45103Y130762D01*
X41039Y130762D01*
X41039Y138890D01*
X41040Y138890D02*
X41042Y138991D01*
X41048Y139092D01*
X41057Y139193D01*
X41070Y139294D01*
X41087Y139394D01*
X41108Y139493D01*
X41132Y139591D01*
X41160Y139688D01*
X41192Y139785D01*
X41227Y139880D01*
X41266Y139973D01*
X41308Y140065D01*
X41354Y140156D01*
X41403Y140245D01*
X41455Y140331D01*
X41511Y140416D01*
X41569Y140499D01*
X41631Y140579D01*
X41696Y140657D01*
X41763Y140733D01*
X41833Y140806D01*
X41906Y140876D01*
X41982Y140943D01*
X42060Y141008D01*
X42140Y141070D01*
X42223Y141128D01*
X42308Y141184D01*
X42395Y141236D01*
X42483Y141285D01*
X42574Y141331D01*
X42666Y141373D01*
X42759Y141412D01*
X42854Y141447D01*
X42951Y141479D01*
X43048Y141507D01*
X43146Y141531D01*
X43245Y141552D01*
X43345Y141569D01*
X43446Y141582D01*
X43547Y141591D01*
X43648Y141597D01*
X43749Y141599D01*
X47361Y141599D01*
X26971Y147018D02*
X26971Y130762D01*
X31487Y130762D01*
X31588Y130764D01*
X31689Y130770D01*
X31790Y130779D01*
X31891Y130792D01*
X31991Y130809D01*
X32090Y130830D01*
X32188Y130854D01*
X32285Y130882D01*
X32382Y130914D01*
X32477Y130949D01*
X32570Y130988D01*
X32662Y131030D01*
X32753Y131076D01*
X32841Y131125D01*
X32928Y131177D01*
X33013Y131233D01*
X33096Y131291D01*
X33176Y131353D01*
X33254Y131418D01*
X33330Y131485D01*
X33403Y131555D01*
X33473Y131628D01*
X33540Y131704D01*
X33605Y131782D01*
X33667Y131862D01*
X33725Y131945D01*
X33781Y132030D01*
X33833Y132116D01*
X33882Y132205D01*
X33928Y132296D01*
X33970Y132388D01*
X34009Y132481D01*
X34044Y132576D01*
X34076Y132673D01*
X34104Y132770D01*
X34128Y132868D01*
X34149Y132967D01*
X34166Y133067D01*
X34179Y133168D01*
X34188Y133269D01*
X34194Y133370D01*
X34196Y133471D01*
X34196Y138890D01*
X34194Y138991D01*
X34188Y139092D01*
X34179Y139193D01*
X34166Y139294D01*
X34149Y139394D01*
X34128Y139493D01*
X34104Y139591D01*
X34076Y139688D01*
X34044Y139785D01*
X34009Y139880D01*
X33970Y139973D01*
X33928Y140065D01*
X33882Y140156D01*
X33833Y140245D01*
X33781Y140331D01*
X33725Y140416D01*
X33667Y140499D01*
X33605Y140579D01*
X33540Y140657D01*
X33473Y140733D01*
X33403Y140806D01*
X33330Y140876D01*
X33254Y140943D01*
X33176Y141008D01*
X33096Y141070D01*
X33013Y141128D01*
X32928Y141184D01*
X32842Y141236D01*
X32753Y141285D01*
X32662Y141331D01*
X32570Y141373D01*
X32477Y141412D01*
X32382Y141447D01*
X32285Y141479D01*
X32188Y141507D01*
X32090Y141531D01*
X31991Y141552D01*
X31891Y141569D01*
X31790Y141582D01*
X31689Y141591D01*
X31588Y141597D01*
X31487Y141599D01*
X26971Y141599D01*
X16967Y137084D02*
X12903Y137084D01*
X16967Y137084D02*
X17079Y137082D01*
X17190Y137076D01*
X17301Y137066D01*
X17412Y137053D01*
X17522Y137035D01*
X17631Y137013D01*
X17740Y136988D01*
X17848Y136959D01*
X17954Y136926D01*
X18060Y136889D01*
X18164Y136849D01*
X18266Y136805D01*
X18367Y136757D01*
X18466Y136706D01*
X18564Y136651D01*
X18659Y136593D01*
X18752Y136532D01*
X18843Y136467D01*
X18932Y136399D01*
X19018Y136328D01*
X19101Y136255D01*
X19182Y136178D01*
X19261Y136098D01*
X19336Y136016D01*
X19408Y135931D01*
X19478Y135844D01*
X19544Y135754D01*
X19607Y135662D01*
X19667Y135567D01*
X19723Y135471D01*
X19776Y135373D01*
X19825Y135273D01*
X19871Y135171D01*
X19913Y135068D01*
X19952Y134963D01*
X19987Y134857D01*
X20018Y134750D01*
X20045Y134642D01*
X20069Y134533D01*
X20088Y134423D01*
X20104Y134313D01*
X20116Y134202D01*
X20124Y134090D01*
X20128Y133979D01*
X20128Y133867D01*
X20124Y133756D01*
X20116Y133644D01*
X20104Y133533D01*
X20088Y133423D01*
X20069Y133313D01*
X20045Y133204D01*
X20018Y133096D01*
X19987Y132989D01*
X19952Y132883D01*
X19913Y132778D01*
X19871Y132675D01*
X19825Y132573D01*
X19776Y132473D01*
X19723Y132375D01*
X19667Y132279D01*
X19607Y132184D01*
X19544Y132092D01*
X19478Y132002D01*
X19408Y131915D01*
X19336Y131830D01*
X19261Y131748D01*
X19182Y131668D01*
X19101Y131591D01*
X19018Y131518D01*
X18932Y131447D01*
X18843Y131379D01*
X18752Y131314D01*
X18659Y131253D01*
X18564Y131195D01*
X18466Y131140D01*
X18367Y131089D01*
X18266Y131041D01*
X18164Y130997D01*
X18060Y130957D01*
X17954Y130920D01*
X17848Y130887D01*
X17740Y130858D01*
X17631Y130833D01*
X17522Y130811D01*
X17412Y130793D01*
X17301Y130780D01*
X17190Y130770D01*
X17079Y130764D01*
X16967Y130762D01*
X12903Y130762D01*
X12903Y138890D01*
X12905Y138991D01*
X12911Y139092D01*
X12920Y139193D01*
X12933Y139294D01*
X12950Y139394D01*
X12971Y139493D01*
X12995Y139591D01*
X13023Y139688D01*
X13055Y139785D01*
X13090Y139880D01*
X13129Y139973D01*
X13171Y140065D01*
X13217Y140156D01*
X13266Y140245D01*
X13318Y140331D01*
X13374Y140416D01*
X13432Y140499D01*
X13494Y140579D01*
X13559Y140657D01*
X13626Y140733D01*
X13696Y140806D01*
X13769Y140876D01*
X13845Y140943D01*
X13923Y141008D01*
X14003Y141070D01*
X14086Y141128D01*
X14171Y141184D01*
X14258Y141236D01*
X14346Y141285D01*
X14437Y141331D01*
X14529Y141373D01*
X14622Y141412D01*
X14717Y141447D01*
X14814Y141479D01*
X14911Y141507D01*
X15009Y141531D01*
X15108Y141552D01*
X15208Y141569D01*
X15309Y141582D01*
X15410Y141591D01*
X15511Y141597D01*
X15612Y141599D01*
X19225Y141599D01*
X5392Y141599D02*
X5392Y125343D01*
X5392Y141599D02*
X877Y141599D01*
X773Y141597D01*
X670Y141591D01*
X566Y141581D01*
X463Y141567D01*
X361Y141549D01*
X260Y141528D01*
X159Y141502D01*
X60Y141473D01*
X-39Y141440D01*
X-136Y141403D01*
X-231Y141362D01*
X-325Y141318D01*
X-417Y141270D01*
X-507Y141219D01*
X-596Y141164D01*
X-682Y141106D01*
X-765Y141044D01*
X-847Y140980D01*
X-925Y140912D01*
X-1001Y140842D01*
X-1075Y140769D01*
X-1145Y140692D01*
X-1213Y140614D01*
X-1277Y140532D01*
X-1339Y140449D01*
X-1397Y140363D01*
X-1452Y140274D01*
X-1503Y140184D01*
X-1551Y140092D01*
X-1595Y139998D01*
X-1636Y139903D01*
X-1673Y139806D01*
X-1706Y139707D01*
X-1735Y139608D01*
X-1761Y139507D01*
X-1782Y139406D01*
X-1800Y139304D01*
X-1814Y139201D01*
X-1824Y139097D01*
X-1830Y138994D01*
X-1832Y138890D01*
X-1833Y138890D02*
X-1833Y133471D01*
X-1832Y133471D02*
X-1830Y133370D01*
X-1824Y133269D01*
X-1815Y133168D01*
X-1802Y133067D01*
X-1785Y132967D01*
X-1764Y132868D01*
X-1740Y132770D01*
X-1712Y132673D01*
X-1680Y132576D01*
X-1645Y132481D01*
X-1606Y132388D01*
X-1564Y132296D01*
X-1518Y132205D01*
X-1469Y132117D01*
X-1417Y132030D01*
X-1361Y131945D01*
X-1303Y131862D01*
X-1241Y131782D01*
X-1176Y131704D01*
X-1109Y131628D01*
X-1039Y131555D01*
X-966Y131485D01*
X-890Y131418D01*
X-812Y131353D01*
X-732Y131291D01*
X-649Y131233D01*
X-564Y131177D01*
X-477Y131125D01*
X-389Y131076D01*
X-298Y131030D01*
X-206Y130988D01*
X-113Y130949D01*
X-18Y130914D01*
X79Y130882D01*
X176Y130854D01*
X274Y130830D01*
X373Y130809D01*
X473Y130792D01*
X574Y130779D01*
X675Y130770D01*
X776Y130764D01*
X877Y130762D01*
X5392Y130762D01*
X-6784Y141599D02*
X-12203Y141599D01*
X-8590Y147018D02*
X-8590Y133471D01*
X-8591Y133471D02*
X-8593Y133370D01*
X-8599Y133269D01*
X-8608Y133168D01*
X-8621Y133067D01*
X-8638Y132967D01*
X-8659Y132868D01*
X-8683Y132770D01*
X-8711Y132673D01*
X-8743Y132576D01*
X-8778Y132481D01*
X-8817Y132388D01*
X-8859Y132296D01*
X-8905Y132205D01*
X-8954Y132116D01*
X-9006Y132030D01*
X-9062Y131945D01*
X-9120Y131862D01*
X-9182Y131782D01*
X-9247Y131704D01*
X-9314Y131628D01*
X-9384Y131555D01*
X-9457Y131485D01*
X-9533Y131418D01*
X-9611Y131353D01*
X-9691Y131291D01*
X-9774Y131233D01*
X-9859Y131177D01*
X-9946Y131125D01*
X-10034Y131076D01*
X-10125Y131030D01*
X-10217Y130988D01*
X-10310Y130949D01*
X-10405Y130914D01*
X-10502Y130882D01*
X-10599Y130854D01*
X-10697Y130830D01*
X-10796Y130809D01*
X-10896Y130792D01*
X-10997Y130779D01*
X-11098Y130770D01*
X-11199Y130764D01*
X-11300Y130762D01*
X-12203Y130762D01*
X-17981Y134374D02*
X-17981Y137987D01*
X-17982Y137987D02*
X-17984Y138106D01*
X-17990Y138226D01*
X-18000Y138345D01*
X-18014Y138463D01*
X-18031Y138582D01*
X-18053Y138699D01*
X-18078Y138816D01*
X-18108Y138931D01*
X-18141Y139046D01*
X-18178Y139160D01*
X-18218Y139272D01*
X-18263Y139383D01*
X-18311Y139492D01*
X-18362Y139600D01*
X-18417Y139706D01*
X-18476Y139810D01*
X-18538Y139912D01*
X-18603Y140012D01*
X-18672Y140110D01*
X-18744Y140206D01*
X-18819Y140299D01*
X-18896Y140389D01*
X-18977Y140477D01*
X-19061Y140562D01*
X-19148Y140644D01*
X-19237Y140724D01*
X-19329Y140800D01*
X-19423Y140874D01*
X-19520Y140944D01*
X-19618Y141011D01*
X-19719Y141075D01*
X-19823Y141135D01*
X-19928Y141192D01*
X-20035Y141245D01*
X-20143Y141295D01*
X-20253Y141341D01*
X-20365Y141383D01*
X-20478Y141422D01*
X-20592Y141457D01*
X-20707Y141488D01*
X-20824Y141516D01*
X-20941Y141539D01*
X-21058Y141559D01*
X-21177Y141575D01*
X-21296Y141587D01*
X-21415Y141595D01*
X-21534Y141599D01*
X-21654Y141599D01*
X-21773Y141595D01*
X-21892Y141587D01*
X-22011Y141575D01*
X-22130Y141559D01*
X-22247Y141539D01*
X-22364Y141516D01*
X-22481Y141488D01*
X-22596Y141457D01*
X-22710Y141422D01*
X-22823Y141383D01*
X-22935Y141341D01*
X-23045Y141295D01*
X-23153Y141245D01*
X-23260Y141192D01*
X-23365Y141135D01*
X-23469Y141075D01*
X-23570Y141011D01*
X-23668Y140944D01*
X-23765Y140874D01*
X-23859Y140800D01*
X-23951Y140724D01*
X-24040Y140644D01*
X-24127Y140562D01*
X-24211Y140477D01*
X-24292Y140389D01*
X-24369Y140299D01*
X-24444Y140206D01*
X-24516Y140110D01*
X-24585Y140012D01*
X-24650Y139912D01*
X-24712Y139810D01*
X-24771Y139706D01*
X-24826Y139600D01*
X-24877Y139492D01*
X-24925Y139383D01*
X-24970Y139272D01*
X-25010Y139160D01*
X-25047Y139046D01*
X-25080Y138931D01*
X-25110Y138816D01*
X-25135Y138699D01*
X-25157Y138582D01*
X-25174Y138463D01*
X-25188Y138345D01*
X-25198Y138226D01*
X-25204Y138106D01*
X-25206Y137987D01*
X-25206Y134374D01*
X-25204Y134255D01*
X-25198Y134135D01*
X-25188Y134016D01*
X-25174Y133898D01*
X-25157Y133779D01*
X-25135Y133662D01*
X-25110Y133545D01*
X-25080Y133430D01*
X-25047Y133315D01*
X-25010Y133201D01*
X-24970Y133089D01*
X-24925Y132978D01*
X-24877Y132869D01*
X-24826Y132761D01*
X-24771Y132655D01*
X-24712Y132551D01*
X-24650Y132449D01*
X-24585Y132349D01*
X-24516Y132251D01*
X-24444Y132155D01*
X-24369Y132062D01*
X-24292Y131972D01*
X-24211Y131884D01*
X-24127Y131799D01*
X-24040Y131717D01*
X-23951Y131637D01*
X-23859Y131561D01*
X-23765Y131487D01*
X-23668Y131417D01*
X-23570Y131350D01*
X-23469Y131286D01*
X-23365Y131226D01*
X-23260Y131169D01*
X-23153Y131116D01*
X-23045Y131066D01*
X-22935Y131020D01*
X-22823Y130978D01*
X-22710Y130939D01*
X-22596Y130904D01*
X-22481Y130873D01*
X-22364Y130845D01*
X-22247Y130822D01*
X-22130Y130802D01*
X-22011Y130786D01*
X-21892Y130774D01*
X-21773Y130766D01*
X-21654Y130762D01*
X-21534Y130762D01*
X-21415Y130766D01*
X-21296Y130774D01*
X-21177Y130786D01*
X-21058Y130802D01*
X-20941Y130822D01*
X-20824Y130845D01*
X-20707Y130873D01*
X-20592Y130904D01*
X-20478Y130939D01*
X-20365Y130978D01*
X-20253Y131020D01*
X-20143Y131066D01*
X-20035Y131116D01*
X-19928Y131169D01*
X-19823Y131226D01*
X-19719Y131286D01*
X-19618Y131350D01*
X-19520Y131417D01*
X-19423Y131487D01*
X-19329Y131561D01*
X-19237Y131637D01*
X-19148Y131717D01*
X-19061Y131799D01*
X-18977Y131884D01*
X-18896Y131972D01*
X-18819Y132062D01*
X-18744Y132155D01*
X-18672Y132251D01*
X-18603Y132349D01*
X-18538Y132449D01*
X-18476Y132551D01*
X-18417Y132655D01*
X-18362Y132761D01*
X-18311Y132869D01*
X-18263Y132978D01*
X-18218Y133089D01*
X-18178Y133201D01*
X-18141Y133315D01*
X-18108Y133430D01*
X-18078Y133545D01*
X-18053Y133662D01*
X-18031Y133779D01*
X-18014Y133898D01*
X-18000Y134016D01*
X-17990Y134135D01*
X-17984Y134255D01*
X-17982Y134374D01*
X-32134Y130762D02*
X-32134Y141599D01*
X-37553Y141599D01*
X-37553Y139793D01*
X145626Y777432D02*
X149238Y788269D01*
X142013Y788269D02*
X145626Y777432D01*
X133503Y777432D02*
X128987Y777432D01*
X133503Y777432D02*
X133604Y777434D01*
X133705Y777440D01*
X133806Y777449D01*
X133907Y777462D01*
X134007Y777479D01*
X134106Y777500D01*
X134204Y777524D01*
X134301Y777552D01*
X134398Y777584D01*
X134493Y777619D01*
X134586Y777658D01*
X134678Y777700D01*
X134769Y777746D01*
X134858Y777795D01*
X134944Y777847D01*
X135029Y777903D01*
X135112Y777961D01*
X135192Y778023D01*
X135270Y778088D01*
X135346Y778155D01*
X135419Y778225D01*
X135489Y778298D01*
X135556Y778374D01*
X135621Y778452D01*
X135683Y778532D01*
X135741Y778615D01*
X135797Y778700D01*
X135849Y778787D01*
X135898Y778875D01*
X135944Y778966D01*
X135986Y779058D01*
X136025Y779151D01*
X136060Y779246D01*
X136092Y779343D01*
X136120Y779440D01*
X136144Y779538D01*
X136165Y779637D01*
X136182Y779737D01*
X136195Y779838D01*
X136204Y779939D01*
X136210Y780040D01*
X136212Y780141D01*
X136212Y784657D01*
X136210Y784776D01*
X136204Y784896D01*
X136194Y785015D01*
X136180Y785133D01*
X136163Y785252D01*
X136141Y785369D01*
X136116Y785486D01*
X136086Y785601D01*
X136053Y785716D01*
X136016Y785830D01*
X135976Y785942D01*
X135931Y786053D01*
X135883Y786162D01*
X135832Y786270D01*
X135777Y786376D01*
X135718Y786480D01*
X135656Y786582D01*
X135591Y786682D01*
X135522Y786780D01*
X135450Y786876D01*
X135375Y786969D01*
X135298Y787059D01*
X135217Y787147D01*
X135133Y787232D01*
X135046Y787314D01*
X134957Y787394D01*
X134865Y787470D01*
X134771Y787544D01*
X134674Y787614D01*
X134576Y787681D01*
X134475Y787745D01*
X134371Y787805D01*
X134266Y787862D01*
X134159Y787915D01*
X134051Y787965D01*
X133941Y788011D01*
X133829Y788053D01*
X133716Y788092D01*
X133602Y788127D01*
X133487Y788158D01*
X133370Y788186D01*
X133253Y788209D01*
X133136Y788229D01*
X133017Y788245D01*
X132898Y788257D01*
X132779Y788265D01*
X132660Y788269D01*
X132540Y788269D01*
X132421Y788265D01*
X132302Y788257D01*
X132183Y788245D01*
X132064Y788229D01*
X131947Y788209D01*
X131830Y788186D01*
X131713Y788158D01*
X131598Y788127D01*
X131484Y788092D01*
X131371Y788053D01*
X131259Y788011D01*
X131149Y787965D01*
X131041Y787915D01*
X130934Y787862D01*
X130829Y787805D01*
X130725Y787745D01*
X130624Y787681D01*
X130526Y787614D01*
X130429Y787544D01*
X130335Y787470D01*
X130243Y787394D01*
X130154Y787314D01*
X130067Y787232D01*
X129983Y787147D01*
X129902Y787059D01*
X129825Y786969D01*
X129750Y786876D01*
X129678Y786780D01*
X129609Y786682D01*
X129544Y786582D01*
X129482Y786480D01*
X129423Y786376D01*
X129368Y786270D01*
X129317Y786162D01*
X129269Y786053D01*
X129224Y785942D01*
X129184Y785830D01*
X129147Y785716D01*
X129114Y785601D01*
X129084Y785486D01*
X129059Y785369D01*
X129037Y785252D01*
X129020Y785133D01*
X129006Y785015D01*
X128996Y784896D01*
X128990Y784776D01*
X128988Y784657D01*
X128987Y784657D02*
X128987Y782851D01*
X136212Y782851D01*
X122059Y777432D02*
X122059Y788269D01*
X116640Y788269D01*
X116640Y786463D01*
X110368Y783754D02*
X105853Y781948D01*
X110369Y783754D02*
X110457Y783791D01*
X110543Y783832D01*
X110628Y783876D01*
X110711Y783924D01*
X110791Y783975D01*
X110870Y784029D01*
X110946Y784087D01*
X111020Y784147D01*
X111092Y784211D01*
X111160Y784277D01*
X111226Y784347D01*
X111289Y784418D01*
X111350Y784493D01*
X111407Y784569D01*
X111460Y784648D01*
X111511Y784729D01*
X111558Y784812D01*
X111602Y784897D01*
X111642Y784984D01*
X111679Y785072D01*
X111712Y785162D01*
X111742Y785253D01*
X111767Y785345D01*
X111789Y785438D01*
X111807Y785532D01*
X111822Y785626D01*
X111832Y785721D01*
X111838Y785817D01*
X111841Y785912D01*
X111840Y786008D01*
X111834Y786103D01*
X111825Y786199D01*
X111812Y786293D01*
X111796Y786387D01*
X111775Y786481D01*
X111750Y786573D01*
X111722Y786664D01*
X111690Y786754D01*
X111655Y786843D01*
X111616Y786930D01*
X111573Y787016D01*
X111527Y787100D01*
X111477Y787181D01*
X111425Y787261D01*
X111369Y787339D01*
X111309Y787414D01*
X111247Y787486D01*
X111182Y787556D01*
X111114Y787624D01*
X111044Y787688D01*
X110971Y787750D01*
X110895Y787808D01*
X110817Y787864D01*
X110737Y787916D01*
X110655Y787965D01*
X110571Y788010D01*
X110485Y788052D01*
X110398Y788091D01*
X110309Y788126D01*
X110218Y788157D01*
X110127Y788184D01*
X110034Y788208D01*
X109941Y788228D01*
X109847Y788244D01*
X109752Y788256D01*
X109657Y788265D01*
X109561Y788269D01*
X109466Y788270D01*
X109219Y788263D01*
X108973Y788251D01*
X108727Y788233D01*
X108481Y788208D01*
X108237Y788178D01*
X107993Y788142D01*
X107750Y788101D01*
X107508Y788053D01*
X107267Y787999D01*
X107028Y787940D01*
X106790Y787875D01*
X106554Y787804D01*
X106319Y787728D01*
X106086Y787646D01*
X105856Y787558D01*
X105628Y787465D01*
X105401Y787367D01*
X105853Y781947D02*
X105765Y781910D01*
X105679Y781869D01*
X105594Y781825D01*
X105511Y781777D01*
X105431Y781726D01*
X105352Y781672D01*
X105276Y781614D01*
X105202Y781554D01*
X105130Y781490D01*
X105062Y781424D01*
X104996Y781354D01*
X104933Y781283D01*
X104872Y781208D01*
X104815Y781132D01*
X104762Y781053D01*
X104711Y780972D01*
X104664Y780889D01*
X104620Y780804D01*
X104580Y780717D01*
X104543Y780629D01*
X104510Y780539D01*
X104480Y780448D01*
X104455Y780356D01*
X104433Y780263D01*
X104415Y780169D01*
X104400Y780075D01*
X104390Y779980D01*
X104384Y779884D01*
X104381Y779789D01*
X104382Y779693D01*
X104388Y779598D01*
X104397Y779502D01*
X104410Y779408D01*
X104426Y779314D01*
X104447Y779220D01*
X104472Y779128D01*
X104500Y779037D01*
X104532Y778947D01*
X104567Y778858D01*
X104606Y778771D01*
X104649Y778685D01*
X104695Y778601D01*
X104745Y778520D01*
X104797Y778440D01*
X104853Y778362D01*
X104913Y778287D01*
X104975Y778215D01*
X105040Y778145D01*
X105108Y778077D01*
X105178Y778013D01*
X105251Y777951D01*
X105327Y777893D01*
X105405Y777837D01*
X105485Y777785D01*
X105567Y777736D01*
X105651Y777691D01*
X105737Y777649D01*
X105824Y777610D01*
X105913Y777575D01*
X106004Y777544D01*
X106095Y777517D01*
X106188Y777493D01*
X106281Y777473D01*
X106375Y777457D01*
X106470Y777445D01*
X106565Y777436D01*
X106661Y777432D01*
X106756Y777431D01*
X106756Y777432D02*
X107118Y777441D01*
X107480Y777459D01*
X107841Y777486D01*
X108201Y777521D01*
X108561Y777564D01*
X108920Y777616D01*
X109277Y777677D01*
X109632Y777746D01*
X109986Y777823D01*
X110338Y777909D01*
X110688Y778003D01*
X111036Y778106D01*
X111381Y778216D01*
X111723Y778335D01*
X98211Y777432D02*
X98211Y788269D01*
X98662Y792785D02*
X98662Y793688D01*
X97759Y793688D01*
X97759Y792785D01*
X98662Y792785D01*
X91924Y784657D02*
X91924Y781044D01*
X91923Y784657D02*
X91921Y784776D01*
X91915Y784896D01*
X91905Y785015D01*
X91891Y785133D01*
X91874Y785252D01*
X91852Y785369D01*
X91827Y785486D01*
X91797Y785601D01*
X91764Y785716D01*
X91727Y785830D01*
X91687Y785942D01*
X91642Y786053D01*
X91594Y786162D01*
X91543Y786270D01*
X91488Y786376D01*
X91429Y786480D01*
X91367Y786582D01*
X91302Y786682D01*
X91233Y786780D01*
X91161Y786876D01*
X91086Y786969D01*
X91009Y787059D01*
X90928Y787147D01*
X90844Y787232D01*
X90757Y787314D01*
X90668Y787394D01*
X90576Y787470D01*
X90482Y787544D01*
X90385Y787614D01*
X90287Y787681D01*
X90186Y787745D01*
X90082Y787805D01*
X89977Y787862D01*
X89870Y787915D01*
X89762Y787965D01*
X89652Y788011D01*
X89540Y788053D01*
X89427Y788092D01*
X89313Y788127D01*
X89198Y788158D01*
X89081Y788186D01*
X88964Y788209D01*
X88847Y788229D01*
X88728Y788245D01*
X88609Y788257D01*
X88490Y788265D01*
X88371Y788269D01*
X88251Y788269D01*
X88132Y788265D01*
X88013Y788257D01*
X87894Y788245D01*
X87775Y788229D01*
X87658Y788209D01*
X87541Y788186D01*
X87424Y788158D01*
X87309Y788127D01*
X87195Y788092D01*
X87082Y788053D01*
X86970Y788011D01*
X86860Y787965D01*
X86752Y787915D01*
X86645Y787862D01*
X86540Y787805D01*
X86436Y787745D01*
X86335Y787681D01*
X86237Y787614D01*
X86140Y787544D01*
X86046Y787470D01*
X85954Y787394D01*
X85865Y787314D01*
X85778Y787232D01*
X85694Y787147D01*
X85613Y787059D01*
X85536Y786969D01*
X85461Y786876D01*
X85389Y786780D01*
X85320Y786682D01*
X85255Y786582D01*
X85193Y786480D01*
X85134Y786376D01*
X85079Y786270D01*
X85028Y786162D01*
X84980Y786053D01*
X84935Y785942D01*
X84895Y785830D01*
X84858Y785716D01*
X84825Y785601D01*
X84795Y785486D01*
X84770Y785369D01*
X84748Y785252D01*
X84731Y785133D01*
X84717Y785015D01*
X84707Y784896D01*
X84701Y784776D01*
X84699Y784657D01*
X84699Y781044D01*
X84701Y780925D01*
X84707Y780805D01*
X84717Y780686D01*
X84731Y780568D01*
X84748Y780449D01*
X84770Y780332D01*
X84795Y780215D01*
X84825Y780100D01*
X84858Y779985D01*
X84895Y779871D01*
X84935Y779759D01*
X84980Y779648D01*
X85028Y779539D01*
X85079Y779431D01*
X85134Y779325D01*
X85193Y779221D01*
X85255Y779119D01*
X85320Y779019D01*
X85389Y778921D01*
X85461Y778825D01*
X85536Y778732D01*
X85613Y778642D01*
X85694Y778554D01*
X85778Y778469D01*
X85865Y778387D01*
X85954Y778307D01*
X86046Y778231D01*
X86140Y778157D01*
X86237Y778087D01*
X86335Y778020D01*
X86436Y777956D01*
X86540Y777896D01*
X86645Y777839D01*
X86752Y777786D01*
X86860Y777736D01*
X86970Y777690D01*
X87082Y777648D01*
X87195Y777609D01*
X87309Y777574D01*
X87424Y777543D01*
X87541Y777515D01*
X87658Y777492D01*
X87775Y777472D01*
X87894Y777456D01*
X88013Y777444D01*
X88132Y777436D01*
X88251Y777432D01*
X88371Y777432D01*
X88490Y777436D01*
X88609Y777444D01*
X88728Y777456D01*
X88847Y777472D01*
X88964Y777492D01*
X89081Y777515D01*
X89198Y777543D01*
X89313Y777574D01*
X89427Y777609D01*
X89540Y777648D01*
X89652Y777690D01*
X89762Y777736D01*
X89870Y777786D01*
X89977Y777839D01*
X90082Y777896D01*
X90186Y777956D01*
X90287Y778020D01*
X90385Y778087D01*
X90482Y778157D01*
X90576Y778231D01*
X90668Y778307D01*
X90757Y778387D01*
X90844Y778469D01*
X90928Y778554D01*
X91009Y778642D01*
X91086Y778732D01*
X91161Y778825D01*
X91233Y778921D01*
X91302Y779019D01*
X91367Y779119D01*
X91429Y779221D01*
X91488Y779325D01*
X91543Y779431D01*
X91594Y779539D01*
X91642Y779648D01*
X91687Y779759D01*
X91727Y779871D01*
X91764Y779985D01*
X91797Y780100D01*
X91827Y780215D01*
X91852Y780332D01*
X91874Y780449D01*
X91891Y780568D01*
X91905Y780686D01*
X91915Y780805D01*
X91921Y780925D01*
X91923Y781044D01*
X77855Y777432D02*
X77855Y788269D01*
X73340Y788269D01*
X73236Y788267D01*
X73133Y788261D01*
X73029Y788251D01*
X72926Y788237D01*
X72824Y788219D01*
X72723Y788198D01*
X72622Y788172D01*
X72523Y788143D01*
X72424Y788110D01*
X72327Y788073D01*
X72232Y788032D01*
X72138Y787988D01*
X72046Y787940D01*
X71956Y787889D01*
X71867Y787834D01*
X71781Y787776D01*
X71698Y787714D01*
X71616Y787650D01*
X71538Y787582D01*
X71462Y787512D01*
X71388Y787439D01*
X71318Y787362D01*
X71250Y787284D01*
X71186Y787202D01*
X71124Y787119D01*
X71066Y787033D01*
X71011Y786944D01*
X70960Y786854D01*
X70912Y786762D01*
X70868Y786668D01*
X70827Y786573D01*
X70790Y786476D01*
X70757Y786377D01*
X70728Y786278D01*
X70702Y786177D01*
X70681Y786076D01*
X70663Y785974D01*
X70649Y785871D01*
X70639Y785767D01*
X70633Y785664D01*
X70631Y785560D01*
X70631Y777432D01*
X64308Y775626D02*
X57084Y775626D01*
X51143Y790076D02*
X46628Y793688D01*
X46628Y777432D01*
X51143Y777432D02*
X42112Y777432D01*
X149238Y761599D02*
X149238Y750762D01*
X149238Y761599D02*
X141110Y761599D01*
X141009Y761597D01*
X140908Y761591D01*
X140807Y761582D01*
X140706Y761569D01*
X140606Y761552D01*
X140507Y761531D01*
X140409Y761507D01*
X140312Y761479D01*
X140215Y761447D01*
X140120Y761412D01*
X140027Y761373D01*
X139935Y761331D01*
X139844Y761285D01*
X139756Y761236D01*
X139669Y761184D01*
X139584Y761128D01*
X139501Y761070D01*
X139421Y761008D01*
X139343Y760943D01*
X139267Y760876D01*
X139194Y760806D01*
X139124Y760733D01*
X139057Y760657D01*
X138992Y760579D01*
X138930Y760499D01*
X138872Y760416D01*
X138816Y760331D01*
X138764Y760245D01*
X138715Y760156D01*
X138669Y760065D01*
X138627Y759973D01*
X138588Y759880D01*
X138553Y759785D01*
X138521Y759688D01*
X138493Y759591D01*
X138469Y759493D01*
X138448Y759394D01*
X138431Y759294D01*
X138418Y759193D01*
X138409Y759092D01*
X138403Y758991D01*
X138401Y758890D01*
X138401Y750762D01*
X143819Y750762D02*
X143819Y761599D01*
X128192Y757084D02*
X124128Y757084D01*
X128192Y757084D02*
X128304Y757082D01*
X128415Y757076D01*
X128526Y757066D01*
X128637Y757053D01*
X128747Y757035D01*
X128856Y757013D01*
X128965Y756988D01*
X129073Y756959D01*
X129179Y756926D01*
X129285Y756889D01*
X129389Y756849D01*
X129491Y756805D01*
X129592Y756757D01*
X129691Y756706D01*
X129789Y756651D01*
X129884Y756593D01*
X129977Y756532D01*
X130068Y756467D01*
X130157Y756399D01*
X130243Y756328D01*
X130326Y756255D01*
X130407Y756178D01*
X130486Y756098D01*
X130561Y756016D01*
X130633Y755931D01*
X130703Y755844D01*
X130769Y755754D01*
X130832Y755662D01*
X130892Y755567D01*
X130948Y755471D01*
X131001Y755373D01*
X131050Y755273D01*
X131096Y755171D01*
X131138Y755068D01*
X131177Y754963D01*
X131212Y754857D01*
X131243Y754750D01*
X131270Y754642D01*
X131294Y754533D01*
X131313Y754423D01*
X131329Y754313D01*
X131341Y754202D01*
X131349Y754090D01*
X131353Y753979D01*
X131353Y753867D01*
X131349Y753756D01*
X131341Y753644D01*
X131329Y753533D01*
X131313Y753423D01*
X131294Y753313D01*
X131270Y753204D01*
X131243Y753096D01*
X131212Y752989D01*
X131177Y752883D01*
X131138Y752778D01*
X131096Y752675D01*
X131050Y752573D01*
X131001Y752473D01*
X130948Y752375D01*
X130892Y752279D01*
X130832Y752184D01*
X130769Y752092D01*
X130703Y752002D01*
X130633Y751915D01*
X130561Y751830D01*
X130486Y751748D01*
X130407Y751668D01*
X130326Y751591D01*
X130243Y751518D01*
X130157Y751447D01*
X130068Y751379D01*
X129977Y751314D01*
X129884Y751253D01*
X129789Y751195D01*
X129691Y751140D01*
X129592Y751089D01*
X129491Y751041D01*
X129389Y750997D01*
X129285Y750957D01*
X129179Y750920D01*
X129073Y750887D01*
X128965Y750858D01*
X128856Y750833D01*
X128747Y750811D01*
X128637Y750793D01*
X128526Y750780D01*
X128415Y750770D01*
X128304Y750764D01*
X128192Y750762D01*
X124128Y750762D01*
X124128Y758890D01*
X124130Y758991D01*
X124136Y759092D01*
X124145Y759193D01*
X124158Y759294D01*
X124175Y759394D01*
X124196Y759493D01*
X124220Y759591D01*
X124248Y759688D01*
X124280Y759785D01*
X124315Y759880D01*
X124354Y759973D01*
X124396Y760065D01*
X124442Y760156D01*
X124491Y760245D01*
X124543Y760331D01*
X124599Y760416D01*
X124657Y760499D01*
X124719Y760579D01*
X124784Y760657D01*
X124851Y760733D01*
X124921Y760806D01*
X124994Y760876D01*
X125070Y760943D01*
X125148Y761008D01*
X125228Y761070D01*
X125311Y761128D01*
X125396Y761184D01*
X125483Y761236D01*
X125571Y761285D01*
X125662Y761331D01*
X125754Y761373D01*
X125847Y761412D01*
X125942Y761447D01*
X126039Y761479D01*
X126136Y761507D01*
X126234Y761531D01*
X126333Y761552D01*
X126433Y761569D01*
X126534Y761582D01*
X126635Y761591D01*
X126736Y761597D01*
X126837Y761599D01*
X130450Y761599D01*
X117732Y745343D02*
X115926Y745343D01*
X110508Y761599D01*
X117732Y761599D02*
X114120Y750762D01*
X105228Y748956D02*
X98003Y748956D01*
X92063Y763406D02*
X87547Y767018D01*
X87547Y750762D01*
X92063Y750762D02*
X83031Y750762D01*
X72819Y757987D02*
X67400Y757987D01*
X72819Y757987D02*
X72937Y757989D01*
X73055Y757995D01*
X73173Y758004D01*
X73290Y758018D01*
X73407Y758035D01*
X73524Y758056D01*
X73639Y758081D01*
X73754Y758110D01*
X73868Y758143D01*
X73980Y758179D01*
X74091Y758219D01*
X74201Y758262D01*
X74310Y758309D01*
X74417Y758359D01*
X74522Y758414D01*
X74625Y758471D01*
X74726Y758532D01*
X74826Y758596D01*
X74923Y758663D01*
X75018Y758733D01*
X75110Y758807D01*
X75201Y758883D01*
X75288Y758963D01*
X75373Y759045D01*
X75455Y759130D01*
X75535Y759217D01*
X75611Y759308D01*
X75685Y759400D01*
X75755Y759495D01*
X75822Y759592D01*
X75886Y759692D01*
X75947Y759793D01*
X76004Y759896D01*
X76059Y760001D01*
X76109Y760108D01*
X76156Y760217D01*
X76199Y760327D01*
X76239Y760438D01*
X76275Y760550D01*
X76308Y760664D01*
X76337Y760779D01*
X76362Y760894D01*
X76383Y761011D01*
X76400Y761128D01*
X76414Y761245D01*
X76423Y761363D01*
X76429Y761481D01*
X76431Y761599D01*
X76431Y762502D01*
X76432Y762502D02*
X76430Y762635D01*
X76424Y762767D01*
X76414Y762899D01*
X76401Y763031D01*
X76383Y763163D01*
X76362Y763293D01*
X76337Y763424D01*
X76308Y763553D01*
X76275Y763681D01*
X76239Y763809D01*
X76199Y763935D01*
X76155Y764060D01*
X76107Y764184D01*
X76056Y764306D01*
X76001Y764427D01*
X75943Y764546D01*
X75881Y764664D01*
X75816Y764779D01*
X75747Y764893D01*
X75676Y765004D01*
X75600Y765113D01*
X75522Y765220D01*
X75441Y765325D01*
X75356Y765427D01*
X75269Y765527D01*
X75179Y765624D01*
X75086Y765719D01*
X74990Y765810D01*
X74892Y765899D01*
X74791Y765985D01*
X74687Y766068D01*
X74581Y766148D01*
X74473Y766224D01*
X74363Y766298D01*
X74250Y766368D01*
X74136Y766435D01*
X74019Y766498D01*
X73901Y766558D01*
X73781Y766615D01*
X73659Y766668D01*
X73536Y766717D01*
X73412Y766763D01*
X73286Y766805D01*
X73159Y766843D01*
X73031Y766878D01*
X72902Y766909D01*
X72773Y766936D01*
X72642Y766959D01*
X72511Y766979D01*
X72379Y766994D01*
X72247Y767006D01*
X72115Y767014D01*
X71982Y767018D01*
X71850Y767018D01*
X71717Y767014D01*
X71585Y767006D01*
X71453Y766994D01*
X71321Y766979D01*
X71190Y766959D01*
X71059Y766936D01*
X70930Y766909D01*
X70801Y766878D01*
X70673Y766843D01*
X70546Y766805D01*
X70420Y766763D01*
X70296Y766717D01*
X70173Y766668D01*
X70051Y766615D01*
X69931Y766558D01*
X69813Y766498D01*
X69696Y766435D01*
X69582Y766368D01*
X69469Y766298D01*
X69359Y766224D01*
X69251Y766148D01*
X69145Y766068D01*
X69041Y765985D01*
X68940Y765899D01*
X68842Y765810D01*
X68746Y765719D01*
X68653Y765624D01*
X68563Y765527D01*
X68476Y765427D01*
X68391Y765325D01*
X68310Y765220D01*
X68232Y765113D01*
X68156Y765004D01*
X68085Y764893D01*
X68016Y764779D01*
X67951Y764664D01*
X67889Y764546D01*
X67831Y764427D01*
X67776Y764306D01*
X67725Y764184D01*
X67677Y764060D01*
X67633Y763935D01*
X67593Y763809D01*
X67557Y763681D01*
X67524Y763553D01*
X67495Y763424D01*
X67470Y763293D01*
X67449Y763163D01*
X67431Y763031D01*
X67418Y762899D01*
X67408Y762767D01*
X67402Y762635D01*
X67400Y762502D01*
X67400Y757987D01*
X67402Y757812D01*
X67408Y757638D01*
X67419Y757464D01*
X67434Y757290D01*
X67453Y757116D01*
X67476Y756943D01*
X67503Y756771D01*
X67535Y756599D01*
X67570Y756428D01*
X67610Y756258D01*
X67654Y756089D01*
X67702Y755921D01*
X67754Y755754D01*
X67810Y755589D01*
X67870Y755425D01*
X67933Y755262D01*
X68001Y755102D01*
X68073Y754942D01*
X68148Y754785D01*
X68228Y754629D01*
X68311Y754476D01*
X68397Y754324D01*
X68488Y754175D01*
X68582Y754028D01*
X68679Y753883D01*
X68780Y753740D01*
X68884Y753600D01*
X68992Y753463D01*
X69103Y753328D01*
X69217Y753196D01*
X69334Y753067D01*
X69455Y752940D01*
X69578Y752817D01*
X69705Y752696D01*
X69834Y752579D01*
X69966Y752465D01*
X70101Y752354D01*
X70238Y752246D01*
X70378Y752142D01*
X70521Y752041D01*
X70666Y751944D01*
X70813Y751850D01*
X70962Y751759D01*
X71114Y751673D01*
X71267Y751590D01*
X71423Y751510D01*
X71580Y751435D01*
X71740Y751363D01*
X71900Y751295D01*
X72063Y751232D01*
X72227Y751172D01*
X72392Y751116D01*
X72559Y751064D01*
X72727Y751016D01*
X72896Y750972D01*
X73066Y750932D01*
X73237Y750897D01*
X73409Y750865D01*
X73581Y750838D01*
X73754Y750815D01*
X73928Y750796D01*
X74102Y750781D01*
X74276Y750770D01*
X74450Y750764D01*
X74625Y750762D01*
X147432Y107084D02*
X142916Y105278D01*
X147432Y107084D02*
X147520Y107121D01*
X147606Y107162D01*
X147691Y107206D01*
X147774Y107254D01*
X147854Y107305D01*
X147933Y107359D01*
X148009Y107417D01*
X148083Y107477D01*
X148155Y107541D01*
X148223Y107607D01*
X148289Y107677D01*
X148352Y107748D01*
X148413Y107823D01*
X148470Y107899D01*
X148523Y107978D01*
X148574Y108059D01*
X148621Y108142D01*
X148665Y108227D01*
X148705Y108314D01*
X148742Y108402D01*
X148775Y108492D01*
X148805Y108583D01*
X148830Y108675D01*
X148852Y108768D01*
X148870Y108862D01*
X148885Y108956D01*
X148895Y109051D01*
X148901Y109147D01*
X148904Y109242D01*
X148903Y109338D01*
X148897Y109433D01*
X148888Y109529D01*
X148875Y109623D01*
X148859Y109717D01*
X148838Y109811D01*
X148813Y109903D01*
X148785Y109994D01*
X148753Y110084D01*
X148718Y110173D01*
X148679Y110260D01*
X148636Y110346D01*
X148590Y110430D01*
X148540Y110511D01*
X148488Y110591D01*
X148432Y110669D01*
X148372Y110744D01*
X148310Y110816D01*
X148245Y110886D01*
X148177Y110954D01*
X148107Y111018D01*
X148034Y111080D01*
X147958Y111138D01*
X147880Y111194D01*
X147800Y111246D01*
X147718Y111295D01*
X147634Y111340D01*
X147548Y111382D01*
X147461Y111421D01*
X147372Y111456D01*
X147281Y111487D01*
X147190Y111514D01*
X147097Y111538D01*
X147004Y111558D01*
X146910Y111574D01*
X146815Y111586D01*
X146720Y111595D01*
X146624Y111599D01*
X146529Y111600D01*
X146282Y111593D01*
X146036Y111581D01*
X145790Y111563D01*
X145544Y111538D01*
X145300Y111508D01*
X145056Y111472D01*
X144813Y111431D01*
X144571Y111383D01*
X144330Y111329D01*
X144091Y111270D01*
X143853Y111205D01*
X143617Y111134D01*
X143382Y111058D01*
X143149Y110976D01*
X142919Y110888D01*
X142691Y110795D01*
X142464Y110697D01*
X142916Y105277D02*
X142828Y105240D01*
X142742Y105199D01*
X142657Y105155D01*
X142574Y105107D01*
X142494Y105056D01*
X142415Y105002D01*
X142339Y104944D01*
X142265Y104884D01*
X142193Y104820D01*
X142125Y104754D01*
X142059Y104684D01*
X141996Y104613D01*
X141935Y104538D01*
X141878Y104462D01*
X141825Y104383D01*
X141774Y104302D01*
X141727Y104219D01*
X141683Y104134D01*
X141643Y104047D01*
X141606Y103959D01*
X141573Y103869D01*
X141543Y103778D01*
X141518Y103686D01*
X141496Y103593D01*
X141478Y103499D01*
X141463Y103405D01*
X141453Y103310D01*
X141447Y103214D01*
X141444Y103119D01*
X141445Y103023D01*
X141451Y102928D01*
X141460Y102832D01*
X141473Y102738D01*
X141489Y102644D01*
X141510Y102550D01*
X141535Y102458D01*
X141563Y102367D01*
X141595Y102277D01*
X141630Y102188D01*
X141669Y102101D01*
X141712Y102015D01*
X141758Y101931D01*
X141808Y101850D01*
X141860Y101770D01*
X141916Y101692D01*
X141976Y101617D01*
X142038Y101545D01*
X142103Y101475D01*
X142171Y101407D01*
X142241Y101343D01*
X142314Y101281D01*
X142390Y101223D01*
X142468Y101167D01*
X142548Y101115D01*
X142630Y101066D01*
X142714Y101021D01*
X142800Y100979D01*
X142887Y100940D01*
X142976Y100905D01*
X143067Y100874D01*
X143158Y100847D01*
X143251Y100823D01*
X143344Y100803D01*
X143438Y100787D01*
X143533Y100775D01*
X143628Y100766D01*
X143724Y100762D01*
X143819Y100761D01*
X143820Y100762D02*
X144182Y100771D01*
X144544Y100789D01*
X144905Y100816D01*
X145265Y100851D01*
X145625Y100894D01*
X145984Y100946D01*
X146341Y101007D01*
X146696Y101076D01*
X147050Y101153D01*
X147402Y101239D01*
X147752Y101333D01*
X148100Y101436D01*
X148445Y101546D01*
X148787Y101665D01*
X136537Y111599D02*
X131118Y111599D01*
X134730Y117018D02*
X134730Y103471D01*
X134728Y103370D01*
X134722Y103269D01*
X134713Y103168D01*
X134700Y103067D01*
X134683Y102967D01*
X134662Y102868D01*
X134638Y102770D01*
X134610Y102673D01*
X134578Y102576D01*
X134543Y102481D01*
X134504Y102388D01*
X134462Y102296D01*
X134416Y102205D01*
X134367Y102116D01*
X134315Y102030D01*
X134259Y101945D01*
X134201Y101862D01*
X134139Y101782D01*
X134074Y101704D01*
X134007Y101628D01*
X133937Y101555D01*
X133864Y101485D01*
X133788Y101418D01*
X133710Y101353D01*
X133630Y101291D01*
X133547Y101233D01*
X133462Y101177D01*
X133376Y101125D01*
X133287Y101076D01*
X133196Y101030D01*
X133104Y100988D01*
X133011Y100949D01*
X132916Y100914D01*
X132819Y100882D01*
X132722Y100854D01*
X132624Y100830D01*
X132525Y100809D01*
X132425Y100792D01*
X132324Y100779D01*
X132223Y100770D01*
X132122Y100764D01*
X132021Y100762D01*
X131118Y100762D01*
X124734Y100762D02*
X124734Y111599D01*
X119315Y111599D01*
X119315Y109793D01*
X111310Y107084D02*
X107246Y107084D01*
X111310Y107084D02*
X111422Y107082D01*
X111533Y107076D01*
X111644Y107066D01*
X111755Y107053D01*
X111865Y107035D01*
X111974Y107013D01*
X112083Y106988D01*
X112191Y106959D01*
X112297Y106926D01*
X112403Y106889D01*
X112507Y106849D01*
X112609Y106805D01*
X112710Y106757D01*
X112809Y106706D01*
X112907Y106651D01*
X113002Y106593D01*
X113095Y106532D01*
X113186Y106467D01*
X113275Y106399D01*
X113361Y106328D01*
X113444Y106255D01*
X113525Y106178D01*
X113604Y106098D01*
X113679Y106016D01*
X113751Y105931D01*
X113821Y105844D01*
X113887Y105754D01*
X113950Y105662D01*
X114010Y105567D01*
X114066Y105471D01*
X114119Y105373D01*
X114168Y105273D01*
X114214Y105171D01*
X114256Y105068D01*
X114295Y104963D01*
X114330Y104857D01*
X114361Y104750D01*
X114388Y104642D01*
X114412Y104533D01*
X114431Y104423D01*
X114447Y104313D01*
X114459Y104202D01*
X114467Y104090D01*
X114471Y103979D01*
X114471Y103867D01*
X114467Y103756D01*
X114459Y103644D01*
X114447Y103533D01*
X114431Y103423D01*
X114412Y103313D01*
X114388Y103204D01*
X114361Y103096D01*
X114330Y102989D01*
X114295Y102883D01*
X114256Y102778D01*
X114214Y102675D01*
X114168Y102573D01*
X114119Y102473D01*
X114066Y102375D01*
X114010Y102279D01*
X113950Y102184D01*
X113887Y102092D01*
X113821Y102002D01*
X113751Y101915D01*
X113679Y101830D01*
X113604Y101748D01*
X113525Y101668D01*
X113444Y101591D01*
X113361Y101518D01*
X113275Y101447D01*
X113186Y101379D01*
X113095Y101314D01*
X113002Y101253D01*
X112907Y101195D01*
X112809Y101140D01*
X112710Y101089D01*
X112609Y101041D01*
X112507Y100997D01*
X112403Y100957D01*
X112297Y100920D01*
X112191Y100887D01*
X112083Y100858D01*
X111974Y100833D01*
X111865Y100811D01*
X111755Y100793D01*
X111644Y100780D01*
X111533Y100770D01*
X111422Y100764D01*
X111310Y100762D01*
X107246Y100762D01*
X107246Y108890D01*
X107247Y108890D02*
X107249Y108991D01*
X107255Y109092D01*
X107264Y109193D01*
X107277Y109294D01*
X107294Y109394D01*
X107315Y109493D01*
X107339Y109591D01*
X107367Y109688D01*
X107399Y109785D01*
X107434Y109880D01*
X107473Y109973D01*
X107515Y110065D01*
X107561Y110156D01*
X107610Y110245D01*
X107662Y110331D01*
X107718Y110416D01*
X107776Y110499D01*
X107838Y110579D01*
X107903Y110657D01*
X107970Y110733D01*
X108040Y110806D01*
X108113Y110876D01*
X108189Y110943D01*
X108267Y111008D01*
X108347Y111070D01*
X108430Y111128D01*
X108515Y111184D01*
X108602Y111236D01*
X108690Y111285D01*
X108781Y111331D01*
X108873Y111373D01*
X108966Y111412D01*
X109061Y111447D01*
X109158Y111479D01*
X109255Y111507D01*
X109353Y111531D01*
X109452Y111552D01*
X109552Y111569D01*
X109653Y111582D01*
X109754Y111591D01*
X109855Y111597D01*
X109956Y111599D01*
X113568Y111599D01*
X100365Y111599D02*
X100365Y100762D01*
X100816Y116115D02*
X100816Y117018D01*
X99913Y117018D01*
X99913Y116115D01*
X100816Y116115D01*
X91441Y100762D02*
X86926Y100762D01*
X91441Y100762D02*
X91542Y100764D01*
X91643Y100770D01*
X91744Y100779D01*
X91845Y100792D01*
X91945Y100809D01*
X92044Y100830D01*
X92142Y100854D01*
X92239Y100882D01*
X92336Y100914D01*
X92431Y100949D01*
X92524Y100988D01*
X92616Y101030D01*
X92707Y101076D01*
X92795Y101125D01*
X92882Y101177D01*
X92967Y101233D01*
X93050Y101291D01*
X93130Y101353D01*
X93208Y101418D01*
X93284Y101485D01*
X93357Y101555D01*
X93427Y101628D01*
X93494Y101704D01*
X93559Y101782D01*
X93621Y101862D01*
X93679Y101945D01*
X93735Y102030D01*
X93787Y102116D01*
X93836Y102205D01*
X93882Y102296D01*
X93924Y102388D01*
X93963Y102481D01*
X93998Y102576D01*
X94030Y102673D01*
X94058Y102770D01*
X94082Y102868D01*
X94103Y102967D01*
X94120Y103067D01*
X94133Y103168D01*
X94142Y103269D01*
X94148Y103370D01*
X94150Y103471D01*
X94151Y103471D02*
X94151Y108890D01*
X94150Y108890D02*
X94148Y108991D01*
X94142Y109092D01*
X94133Y109193D01*
X94120Y109294D01*
X94103Y109394D01*
X94082Y109493D01*
X94058Y109591D01*
X94030Y109688D01*
X93998Y109785D01*
X93963Y109880D01*
X93924Y109973D01*
X93882Y110065D01*
X93836Y110156D01*
X93787Y110245D01*
X93735Y110331D01*
X93679Y110416D01*
X93621Y110499D01*
X93559Y110579D01*
X93494Y110657D01*
X93427Y110733D01*
X93357Y110806D01*
X93284Y110876D01*
X93208Y110943D01*
X93130Y111008D01*
X93050Y111070D01*
X92967Y111128D01*
X92882Y111184D01*
X92796Y111236D01*
X92707Y111285D01*
X92616Y111331D01*
X92524Y111373D01*
X92431Y111412D01*
X92336Y111447D01*
X92239Y111479D01*
X92142Y111507D01*
X92044Y111531D01*
X91945Y111552D01*
X91845Y111569D01*
X91744Y111582D01*
X91643Y111591D01*
X91542Y111597D01*
X91441Y111599D01*
X86926Y111599D01*
X86926Y98053D01*
X86928Y97952D01*
X86934Y97851D01*
X86943Y97750D01*
X86956Y97649D01*
X86973Y97549D01*
X86994Y97450D01*
X87018Y97352D01*
X87046Y97255D01*
X87078Y97158D01*
X87113Y97063D01*
X87152Y96970D01*
X87194Y96878D01*
X87240Y96787D01*
X87289Y96699D01*
X87341Y96612D01*
X87397Y96527D01*
X87455Y96444D01*
X87517Y96364D01*
X87582Y96286D01*
X87649Y96210D01*
X87719Y96137D01*
X87792Y96067D01*
X87868Y96000D01*
X87946Y95935D01*
X88026Y95873D01*
X88109Y95815D01*
X88194Y95759D01*
X88281Y95707D01*
X88369Y95658D01*
X88460Y95612D01*
X88552Y95570D01*
X88645Y95531D01*
X88740Y95496D01*
X88837Y95464D01*
X88934Y95436D01*
X89032Y95412D01*
X89131Y95391D01*
X89231Y95374D01*
X89332Y95361D01*
X89433Y95352D01*
X89534Y95346D01*
X89635Y95344D01*
X89635Y95343D02*
X93247Y95343D01*
X79488Y100762D02*
X79488Y117018D01*
X79488Y111599D02*
X74973Y111599D01*
X74869Y111597D01*
X74766Y111591D01*
X74662Y111581D01*
X74559Y111567D01*
X74457Y111549D01*
X74356Y111528D01*
X74255Y111502D01*
X74156Y111473D01*
X74057Y111440D01*
X73960Y111403D01*
X73865Y111362D01*
X73771Y111318D01*
X73679Y111270D01*
X73589Y111219D01*
X73500Y111164D01*
X73414Y111106D01*
X73331Y111044D01*
X73249Y110980D01*
X73171Y110912D01*
X73095Y110842D01*
X73021Y110769D01*
X72951Y110692D01*
X72883Y110614D01*
X72819Y110532D01*
X72757Y110449D01*
X72699Y110363D01*
X72644Y110274D01*
X72593Y110184D01*
X72545Y110092D01*
X72501Y109998D01*
X72460Y109903D01*
X72423Y109806D01*
X72390Y109707D01*
X72361Y109608D01*
X72335Y109507D01*
X72314Y109406D01*
X72296Y109304D01*
X72282Y109201D01*
X72272Y109097D01*
X72266Y108994D01*
X72264Y108890D01*
X72263Y108890D02*
X72263Y100762D01*
X66717Y111599D02*
X61299Y111599D01*
X64911Y117018D02*
X64911Y103471D01*
X64909Y103370D01*
X64903Y103269D01*
X64894Y103168D01*
X64881Y103067D01*
X64864Y102967D01*
X64843Y102868D01*
X64819Y102770D01*
X64791Y102673D01*
X64759Y102576D01*
X64724Y102481D01*
X64685Y102388D01*
X64643Y102296D01*
X64597Y102205D01*
X64548Y102116D01*
X64496Y102030D01*
X64440Y101945D01*
X64382Y101862D01*
X64320Y101782D01*
X64255Y101704D01*
X64188Y101628D01*
X64118Y101555D01*
X64045Y101485D01*
X63969Y101418D01*
X63891Y101353D01*
X63811Y101291D01*
X63728Y101233D01*
X63643Y101177D01*
X63556Y101125D01*
X63468Y101076D01*
X63377Y101030D01*
X63285Y100988D01*
X63192Y100949D01*
X63097Y100914D01*
X63000Y100882D01*
X62903Y100854D01*
X62805Y100830D01*
X62706Y100809D01*
X62606Y100792D01*
X62505Y100779D01*
X62404Y100770D01*
X62303Y100764D01*
X62202Y100762D01*
X61299Y100762D01*
D11*
X235946Y682081D02*
X238542Y685326D01*
X226858Y685326D01*
X226858Y682081D02*
X226858Y688572D01*
D12*
X169200Y722100D02*
X169200Y137900D01*
X270800Y137900D01*
X270800Y722100D01*
X169200Y722100D01*
D11*
X264308Y101615D02*
X275992Y101615D01*
X275992Y104861D01*
X275990Y104974D01*
X275984Y105087D01*
X275974Y105200D01*
X275960Y105313D01*
X275943Y105425D01*
X275921Y105536D01*
X275896Y105646D01*
X275866Y105756D01*
X275833Y105864D01*
X275796Y105971D01*
X275756Y106077D01*
X275711Y106181D01*
X275663Y106284D01*
X275612Y106385D01*
X275557Y106484D01*
X275499Y106581D01*
X275437Y106676D01*
X275372Y106769D01*
X275304Y106859D01*
X275233Y106947D01*
X275158Y107033D01*
X275081Y107116D01*
X275001Y107196D01*
X274918Y107273D01*
X274832Y107348D01*
X274744Y107419D01*
X274654Y107487D01*
X274561Y107552D01*
X274466Y107614D01*
X274369Y107672D01*
X274270Y107727D01*
X274169Y107778D01*
X274066Y107826D01*
X273962Y107871D01*
X273856Y107911D01*
X273749Y107948D01*
X273641Y107981D01*
X273531Y108011D01*
X273421Y108036D01*
X273310Y108058D01*
X273198Y108075D01*
X273085Y108089D01*
X272972Y108099D01*
X272859Y108105D01*
X272746Y108107D01*
X272633Y108105D01*
X272520Y108099D01*
X272407Y108089D01*
X272294Y108075D01*
X272182Y108058D01*
X272071Y108036D01*
X271961Y108011D01*
X271851Y107981D01*
X271743Y107948D01*
X271636Y107911D01*
X271530Y107871D01*
X271426Y107826D01*
X271323Y107778D01*
X271222Y107727D01*
X271123Y107672D01*
X271026Y107614D01*
X270931Y107552D01*
X270838Y107487D01*
X270748Y107419D01*
X270660Y107348D01*
X270574Y107273D01*
X270491Y107196D01*
X270411Y107116D01*
X270334Y107033D01*
X270259Y106947D01*
X270188Y106859D01*
X270120Y106769D01*
X270055Y106676D01*
X269993Y106581D01*
X269935Y106484D01*
X269880Y106385D01*
X269829Y106284D01*
X269781Y106181D01*
X269736Y106077D01*
X269696Y105971D01*
X269659Y105864D01*
X269626Y105756D01*
X269596Y105646D01*
X269571Y105536D01*
X269549Y105425D01*
X269532Y105313D01*
X269518Y105200D01*
X269508Y105087D01*
X269502Y104974D01*
X269500Y104861D01*
X269501Y104861D02*
X269501Y101615D01*
X264308Y112899D02*
X275992Y112899D01*
X264308Y112899D02*
X264308Y118091D01*
X273396Y122401D02*
X275992Y125646D01*
X264308Y125646D01*
X264308Y122401D02*
X264308Y128892D01*
M02*
