M48
;GenerationSoftware,Autodesk,EAGLE,9.4.0*%
;CreationDate,2019-05-15T19:59:51Z*%
FMAT,2
ICI,OFF
METRIC,TZ,000.000
T3C0.914
T2C1.750
T1C2.000
%
G90
M71
T1
X19800Y74700
X1700Y76200
X19800Y11300
X1700Y9800
T2
X13000Y65000
X13000Y61000
X13000Y57000
X13000Y53000
X13000Y49000
X13000Y45000
X13000Y41000
X13000Y37000
X13000Y33000
X13000Y29000
X13000Y25000
X13000Y21000
X9000Y63000
X9000Y59000
X9000Y55000
X9000Y51000
X9000Y47000
X9000Y43000
X9000Y39000
X9000Y35000
X9000Y31000
X9000Y27000
X9000Y23000
X5000Y65000
X5000Y61000
X5000Y57000
X5000Y53000
X5000Y49000
X5000Y45000
X5000Y41000
X5000Y37000
X5000Y33000
X5000Y29000
X5000Y25000
X5000Y21000
T3
X23270Y67130
X20730Y67130
X23270Y64590
X20730Y64590
X23270Y62050
X20730Y62050
X23270Y59510
X20730Y59510
X23270Y56970
X20730Y56970
X23270Y54430
X20730Y54430
X23270Y51890
X20730Y51890
X23270Y49350
X20730Y49350
X23270Y46810
X20730Y46810
X23270Y44270
X20730Y44270
X23270Y41730
X20730Y41730
X23270Y39190
X20730Y39190
X23270Y36650
X20730Y36650
X20730Y34110
X23270Y34110
X20730Y31570
X23270Y31570
X20730Y29030
X23270Y29030
X23270Y26490
X20730Y26490
X23270Y23950
X20730Y23950
X20730Y21410
X23270Y21410
X23270Y18870
X20730Y18870
M30