G04 EAGLE Gerber RS-274X export*
G75*
%MOMM*%
%FSLAX34Y34*%
%LPD*%
%INTop Copper*%
%IPPOS*%
%AMOC8*
5,1,8,0,0,1.08239X$1,22.5*%
G01*
%ADD10R,2.625000X2.625000*%
%ADD11C,2.625000*%
%ADD12R,1.422400X1.422400*%
%ADD13P,1.539592X8X292.500000*%
%ADD14C,0.400000*%
%ADD15C,1.000000*%


D10*
X130000Y650000D03*
D11*
X130000Y610000D03*
X130000Y570000D03*
X130000Y530000D03*
X130000Y490000D03*
X130000Y450000D03*
X130000Y410000D03*
X130000Y370000D03*
X130000Y330000D03*
X130000Y290000D03*
X130000Y250000D03*
X130000Y210000D03*
X90000Y630000D03*
X90000Y590000D03*
X90000Y550000D03*
X90000Y510000D03*
X90000Y470000D03*
X90000Y430000D03*
X90000Y390000D03*
X90000Y350000D03*
X90000Y310000D03*
X90000Y270000D03*
X90000Y230000D03*
X50000Y650000D03*
X50000Y610000D03*
X50000Y570000D03*
X50000Y530000D03*
X50000Y490000D03*
X50000Y450000D03*
X50000Y410000D03*
X50000Y370000D03*
X50000Y330000D03*
X50000Y290000D03*
X50000Y250000D03*
X50000Y210000D03*
D12*
X207300Y671300D03*
D13*
X232700Y671300D03*
X207300Y645900D03*
X232700Y645900D03*
X207300Y620500D03*
X232700Y620500D03*
X207300Y595100D03*
X232700Y595100D03*
X207300Y569700D03*
X232700Y569700D03*
X207300Y544300D03*
X232700Y544300D03*
X207300Y518900D03*
X232700Y518900D03*
X207300Y493500D03*
X232700Y493500D03*
X207300Y468100D03*
X232700Y468100D03*
X207300Y442700D03*
X232700Y442700D03*
X207300Y417300D03*
X232700Y417300D03*
X207300Y391900D03*
X232700Y391900D03*
X207300Y366500D03*
X232700Y366500D03*
X232700Y341100D03*
X207300Y341100D03*
X232700Y315700D03*
X207300Y315700D03*
X232700Y290300D03*
X207300Y290300D03*
X207300Y264900D03*
X232700Y264900D03*
X207300Y239500D03*
X232700Y239500D03*
X232700Y214100D03*
X207300Y214100D03*
X207300Y188700D03*
X232700Y188700D03*
D14*
X180000Y470000D02*
X90000Y470000D01*
X180000Y470000D02*
X207300Y442700D01*
X180000Y490000D02*
X130000Y490000D01*
X180000Y490000D02*
X190000Y480000D01*
X202283Y480212D02*
X212317Y480212D01*
X202071Y480000D02*
X190000Y480000D01*
X202071Y480000D02*
X202283Y480212D01*
X224429Y468100D02*
X232700Y468100D01*
X224429Y468100D02*
X212317Y480212D01*
X180000Y510000D02*
X90000Y510000D01*
X196500Y493500D02*
X207300Y493500D01*
X196500Y493500D02*
X180000Y510000D01*
X140000Y530000D02*
X130000Y530000D01*
X151100Y518900D02*
X207300Y518900D01*
X151100Y518900D02*
X140000Y530000D01*
X232700Y530000D02*
X232700Y518900D01*
X169871Y550000D02*
X90000Y550000D01*
X230512Y532188D02*
X232700Y530000D01*
X230512Y532188D02*
X187683Y532188D01*
X169871Y550000D01*
X180000Y570000D02*
X130000Y570000D01*
X192412Y557588D02*
X232700Y557588D01*
X232700Y544300D01*
X192412Y557588D02*
X180000Y570000D01*
X180000Y590000D02*
X90000Y590000D01*
X200300Y569700D02*
X207300Y569700D01*
X200300Y569700D02*
X180000Y590000D01*
X180000Y610000D02*
X130000Y610000D01*
X194900Y595100D02*
X207300Y595100D01*
X194900Y595100D02*
X180000Y610000D01*
X189671Y630000D02*
X90000Y630000D01*
X189671Y630000D02*
X192283Y632612D01*
X247388Y632612D01*
X250000Y630000D01*
X250000Y600000D01*
X245100Y595100D02*
X232700Y595100D01*
X245100Y595100D02*
X250000Y600000D01*
D15*
X186000Y650000D02*
X207300Y671300D01*
X186000Y650000D02*
X130000Y650000D01*
X207300Y671300D02*
X232700Y671300D01*
X232700Y645900D02*
X207300Y645900D01*
D14*
X180000Y410000D02*
X130000Y410000D01*
X198100Y391900D02*
X207300Y391900D01*
X198100Y391900D02*
X180000Y410000D01*
X180000Y430000D02*
X90000Y430000D01*
X192700Y417300D02*
X207300Y417300D01*
X192700Y417300D02*
X180000Y430000D01*
X203800Y370000D02*
X207300Y366500D01*
X203800Y370000D02*
X130000Y370000D01*
X90000Y390000D02*
X190101Y390000D01*
X200313Y379788D01*
X220588Y379788D01*
X232700Y391900D01*
X110000Y370000D02*
X50000Y370000D01*
X111875Y362492D02*
X122492Y351875D01*
X137508Y351875D01*
X111875Y368125D02*
X110000Y370000D01*
X111875Y368125D02*
X111875Y362492D01*
X212317Y354388D02*
X217929Y360000D01*
X140021Y354388D02*
X137508Y351875D01*
X140021Y354388D02*
X212317Y354388D01*
X226200Y360000D02*
X232700Y366500D01*
X226200Y360000D02*
X217929Y360000D01*
X180000Y330000D02*
X130000Y330000D01*
X191100Y341100D02*
X207300Y341100D01*
X191100Y341100D02*
X180000Y330000D01*
X137508Y311875D02*
X122492Y311875D01*
X104367Y330000D02*
X50000Y330000D01*
X104367Y330000D02*
X122492Y311875D01*
X137508Y311875D02*
X145633Y320000D01*
X203000Y320000D02*
X207300Y315700D01*
X203000Y320000D02*
X145633Y320000D01*
X130300Y290300D02*
X130000Y290000D01*
X130300Y290300D02*
X207300Y290300D01*
X137508Y271875D02*
X122492Y271875D01*
X104367Y290000D02*
X50000Y290000D01*
X104367Y290000D02*
X122492Y271875D01*
X137508Y271875D02*
X143821Y278188D01*
X220588Y278188D01*
X232700Y290300D01*
X144900Y264900D02*
X130000Y250000D01*
X144900Y264900D02*
X207300Y264900D01*
X140000Y220000D02*
X130000Y210000D01*
X187800Y220000D02*
X207300Y239500D01*
X187800Y220000D02*
X140000Y220000D01*
D15*
X207300Y214100D02*
X232700Y214100D01*
X207300Y188700D02*
X71300Y188700D01*
X50000Y210000D01*
X207300Y188700D02*
X232700Y188700D01*
M02*
