G04 EAGLE Gerber RS-274X export*
G75*
%MOMM*%
%FSLAX34Y34*%
%LPD*%
%INSilkscreen Top*%
%IPPOS*%
%AMOC8*
5,1,8,0,0,1.08239X$1,22.5*%
G01*
%ADD10C,0.152400*%
%ADD11C,0.400000*%
%ADD12C,0.101600*%
%ADD13C,0.127000*%


D10*
X150500Y45500D02*
X150500Y814500D01*
X-28000Y814500D02*
X-28000Y45500D01*
X-28000Y814500D02*
X150500Y814500D01*
X150500Y45500D02*
X-28000Y45500D01*
X-27993Y126022D01*
X-28001Y133000D02*
X-27991Y133000D01*
X-27991Y212964D01*
X-28001Y727000D02*
X-228500Y727000D01*
X-228500Y133000D01*
X-28001Y133000D01*
X-28001Y213022D01*
D11*
X157860Y652250D02*
X157862Y652339D01*
X157868Y652428D01*
X157878Y652517D01*
X157892Y652605D01*
X157909Y652692D01*
X157931Y652778D01*
X157957Y652864D01*
X157986Y652948D01*
X158019Y653031D01*
X158055Y653112D01*
X158096Y653192D01*
X158139Y653269D01*
X158186Y653345D01*
X158237Y653418D01*
X158290Y653489D01*
X158347Y653558D01*
X158407Y653624D01*
X158470Y653688D01*
X158535Y653748D01*
X158603Y653806D01*
X158674Y653860D01*
X158747Y653911D01*
X158822Y653959D01*
X158899Y654004D01*
X158978Y654045D01*
X159059Y654082D01*
X159141Y654116D01*
X159225Y654147D01*
X159310Y654173D01*
X159396Y654196D01*
X159483Y654214D01*
X159571Y654229D01*
X159660Y654240D01*
X159749Y654247D01*
X159838Y654250D01*
X159927Y654249D01*
X160016Y654244D01*
X160104Y654235D01*
X160193Y654222D01*
X160280Y654205D01*
X160367Y654185D01*
X160453Y654160D01*
X160537Y654132D01*
X160620Y654100D01*
X160702Y654064D01*
X160782Y654025D01*
X160860Y653982D01*
X160936Y653936D01*
X161010Y653886D01*
X161082Y653833D01*
X161151Y653777D01*
X161218Y653718D01*
X161282Y653656D01*
X161343Y653592D01*
X161402Y653524D01*
X161457Y653454D01*
X161509Y653382D01*
X161558Y653307D01*
X161603Y653231D01*
X161645Y653152D01*
X161683Y653072D01*
X161718Y652990D01*
X161749Y652906D01*
X161777Y652821D01*
X161800Y652735D01*
X161820Y652648D01*
X161836Y652561D01*
X161848Y652472D01*
X161856Y652384D01*
X161860Y652295D01*
X161860Y652205D01*
X161856Y652116D01*
X161848Y652028D01*
X161836Y651939D01*
X161820Y651852D01*
X161800Y651765D01*
X161777Y651679D01*
X161749Y651594D01*
X161718Y651510D01*
X161683Y651428D01*
X161645Y651348D01*
X161603Y651269D01*
X161558Y651193D01*
X161509Y651118D01*
X161457Y651046D01*
X161402Y650976D01*
X161343Y650908D01*
X161282Y650844D01*
X161218Y650782D01*
X161151Y650723D01*
X161082Y650667D01*
X161010Y650614D01*
X160936Y650564D01*
X160860Y650518D01*
X160782Y650475D01*
X160702Y650436D01*
X160620Y650400D01*
X160537Y650368D01*
X160453Y650340D01*
X160367Y650315D01*
X160280Y650295D01*
X160193Y650278D01*
X160104Y650265D01*
X160016Y650256D01*
X159927Y650251D01*
X159838Y650250D01*
X159749Y650253D01*
X159660Y650260D01*
X159571Y650271D01*
X159483Y650286D01*
X159396Y650304D01*
X159310Y650327D01*
X159225Y650353D01*
X159141Y650384D01*
X159059Y650418D01*
X158978Y650455D01*
X158899Y650496D01*
X158822Y650541D01*
X158747Y650589D01*
X158674Y650640D01*
X158603Y650694D01*
X158535Y650752D01*
X158470Y650812D01*
X158407Y650876D01*
X158347Y650942D01*
X158290Y651011D01*
X158237Y651082D01*
X158186Y651155D01*
X158139Y651231D01*
X158096Y651308D01*
X158055Y651388D01*
X158019Y651469D01*
X157986Y651552D01*
X157957Y651636D01*
X157931Y651722D01*
X157909Y651808D01*
X157892Y651895D01*
X157878Y651983D01*
X157868Y652072D01*
X157862Y652161D01*
X157860Y652250D01*
D10*
X160685Y744740D02*
X173352Y744740D01*
X173470Y744738D01*
X173589Y744732D01*
X173707Y744723D01*
X173824Y744709D01*
X173942Y744692D01*
X174058Y744670D01*
X174174Y744645D01*
X174289Y744617D01*
X174403Y744584D01*
X174515Y744548D01*
X174627Y744508D01*
X174737Y744465D01*
X174846Y744417D01*
X174953Y744367D01*
X175058Y744313D01*
X175162Y744255D01*
X175263Y744194D01*
X175363Y744130D01*
X175460Y744063D01*
X175555Y743992D01*
X175648Y743919D01*
X175738Y743842D01*
X175826Y743762D01*
X175911Y743680D01*
X175993Y743595D01*
X176073Y743507D01*
X176150Y743417D01*
X176223Y743324D01*
X176294Y743229D01*
X176361Y743132D01*
X176425Y743032D01*
X176486Y742931D01*
X176544Y742827D01*
X176598Y742722D01*
X176648Y742615D01*
X176696Y742506D01*
X176739Y742396D01*
X176779Y742284D01*
X176815Y742172D01*
X176848Y742058D01*
X176876Y741943D01*
X176901Y741827D01*
X176923Y741711D01*
X176940Y741593D01*
X176954Y741476D01*
X176963Y741358D01*
X176969Y741239D01*
X176971Y741121D01*
X176971Y739312D01*
X164304Y751814D02*
X160685Y756338D01*
X176971Y756338D01*
X176971Y751814D02*
X176971Y760862D01*
D12*
X201458Y685326D02*
X204054Y682081D01*
X201458Y685326D02*
X213142Y685326D01*
X213142Y682081D02*
X213142Y688572D01*
D13*
X270800Y722100D02*
X270800Y137900D01*
X169200Y137900D01*
X169200Y722100D01*
X270800Y722100D01*
D12*
X275692Y101615D02*
X264008Y101615D01*
X264008Y104861D01*
X264010Y104974D01*
X264016Y105087D01*
X264026Y105200D01*
X264040Y105313D01*
X264057Y105425D01*
X264079Y105536D01*
X264104Y105646D01*
X264134Y105756D01*
X264167Y105864D01*
X264204Y105971D01*
X264244Y106077D01*
X264289Y106181D01*
X264337Y106284D01*
X264388Y106385D01*
X264443Y106484D01*
X264501Y106581D01*
X264563Y106676D01*
X264628Y106769D01*
X264696Y106859D01*
X264767Y106947D01*
X264842Y107033D01*
X264919Y107116D01*
X264999Y107196D01*
X265082Y107273D01*
X265168Y107348D01*
X265256Y107419D01*
X265346Y107487D01*
X265439Y107552D01*
X265534Y107614D01*
X265631Y107672D01*
X265730Y107727D01*
X265831Y107778D01*
X265934Y107826D01*
X266038Y107871D01*
X266144Y107911D01*
X266251Y107948D01*
X266359Y107981D01*
X266469Y108011D01*
X266579Y108036D01*
X266690Y108058D01*
X266802Y108075D01*
X266915Y108089D01*
X267028Y108099D01*
X267141Y108105D01*
X267254Y108107D01*
X267367Y108105D01*
X267480Y108099D01*
X267593Y108089D01*
X267706Y108075D01*
X267818Y108058D01*
X267929Y108036D01*
X268039Y108011D01*
X268149Y107981D01*
X268257Y107948D01*
X268364Y107911D01*
X268470Y107871D01*
X268574Y107826D01*
X268677Y107778D01*
X268778Y107727D01*
X268877Y107672D01*
X268974Y107614D01*
X269069Y107552D01*
X269162Y107487D01*
X269252Y107419D01*
X269340Y107348D01*
X269426Y107273D01*
X269509Y107196D01*
X269589Y107116D01*
X269666Y107033D01*
X269741Y106947D01*
X269812Y106859D01*
X269880Y106769D01*
X269945Y106676D01*
X270007Y106581D01*
X270065Y106484D01*
X270120Y106385D01*
X270171Y106284D01*
X270219Y106181D01*
X270264Y106077D01*
X270304Y105971D01*
X270341Y105864D01*
X270374Y105756D01*
X270404Y105646D01*
X270429Y105536D01*
X270451Y105425D01*
X270468Y105313D01*
X270482Y105200D01*
X270492Y105087D01*
X270498Y104974D01*
X270500Y104861D01*
X270499Y104861D02*
X270499Y101615D01*
X275692Y112899D02*
X264008Y112899D01*
X275692Y112899D02*
X275692Y118091D01*
X266604Y122401D02*
X264008Y125646D01*
X275692Y125646D01*
X275692Y122401D02*
X275692Y128892D01*
M02*
